<svg id="Layer_1" data-name="Layer 1" xmlns="http://www.w3.org/2000/svg" viewBox="0 0 50 50"><path d="M4.17,9.2l2.72,2.71,4.79-.53.54-4.79L9.5,3.87ZM10,9.67l-2.4.27-.74-.75L9.5,6.53l.75.75Z"/><path d="M39.52,27.3a2.88,2.88,0,0,0-4,0l-2,2-4.93-5,9.11-9.11,6.15.48,4.27-4.28a2.8,2.8,0,0,0,0-4h0L41.54.82a2.82,2.82,0,0,0-4,0h0L33.29,5.1l.48,6.15-9.13,9.12-9.12-9.12L16,5.1,11.72.82a2.82,2.82,0,0,0-4,0h0L1.13,7.44a2.8,2.8,0,0,0,0,4h0L5.4,15.69l6.15-.47,9.12,9.12-4.94,4.95-2-2a2.88,2.88,0,0,0-4,0L.21,36.86l2.24,9.68,9.68,2.23,9.55-9.55a2.81,2.81,0,0,0,0-4h0l-2-2,4.94-4.95,4.95,4.95-2,2a2.81,2.81,0,0,0,0,4l9.93,9.93a1.86,1.86,0,0,0,2.64,0h0l9.27-9.27a1.88,1.88,0,0,0,0-2.65ZM21.68,28.62,20.36,27.3,32.94,14.72l1.32,1.33ZM38.89,2.15a.94.94,0,0,1,1.33,0h0l6.62,6.62a.93.93,0,0,1,0,1.32h0l-3.67,3.67L37,13.29l-1.44,1.44L34.26,13.4,35.7,12l-.48-6.16ZM6.12,13.76,2.45,10.09a.93.93,0,0,1,0-1.32h0L9.07,2.15a.93.93,0,0,1,1.32,0h0l3.67,3.66L13.59,12,15,13.4l-1.32,1.32-1.45-1.44ZM15,16.05l1.32-1.32,7,7L22,23ZM11.54,46.71,4,45,2.27,37.45l2.27-2.27L7.1,42l7.49,1.67Zm9.09-9.48a.9.9,0,0,1-.27.66l-4.2,4.2-7.67-1.7L6,33.72l5.1-5.1a1,1,0,0,1,1.33,0l2,2L12,33l.66,2L9.1,38.55l1.33,1.33,4.38-4.38-.66-2,1.58-1.57,4.63,4.63A.91.91,0,0,1,20.63,37.23Zm-3.58-6.62,2-2L20.36,30l-2,2Zm10.25-5,1.64,1.64L27.6,28.62,26,27ZM28.93,30l1.33-1.33,2,2-1.32,1.33Zm-.27,7.28a.9.9,0,0,1,.27-.66l7.94-7.95a1,1,0,0,1,1.33,0l1.57,1.58L37,31.11l-5.61,5.61-.91,2.75-1.58-1.58a.91.91,0,0,1-.27-.66Zm18.15,2.64-2.66-2.64-1.32,1.32,2.65,2.65-1.31,1.31-2.66-2.64-1.33,1.34,2.66,2.63L41.5,45.18l-2.64-2.65-1.33,1.32,2.65,2.65-1.32,1.32L32,41l1.07-3.21,1.83-1.83,4,4,1.32-1.33-4-4L38,32.75l3.22-1.07,6.87,6.87Z"/><path d="M42.11,11.91,44.82,9.2,39.5,3.87,36.78,6.59l.53,4.79ZM39.5,6.53,42.16,9.2l-.75.74L39,9.68l-.27-2.4Z"/></svg>