<svg id="Layer_1" data-name="Layer 1" xmlns="http://www.w3.org/2000/svg" xmlns:xlink="http://www.w3.org/1999/xlink" viewBox="0 0 50 50"><defs><style>.cls-1{fill:none;}.cls-2{clip-path:url(#clip-path);}</style><clipPath id="clip-path"><rect class="cls-1" x="0.1" y="-0.01" width="50" height="50"/></clipPath></defs><g class="cls-2"><path d="M17,14.78a.77.77,0,0,0-.78-.35.85.85,0,0,0-.63.62.78.78,0,0,0,1.53.28.71.71,0,0,0-.12-.55Z"/><path d="M12.54,15.37a.79.79,0,0,0,.86.7.77.77,0,0,0,.66-.86.79.79,0,0,0-.86-.7.76.76,0,0,0-.66.86Z"/><path d="M16.64,11.89a.76.76,0,0,0,0,1.09.74.74,0,0,0,1.09,0h0a.75.75,0,0,0,0-1.09.65.65,0,0,0-.15-.12A.78.78,0,0,0,16.64,11.89Z"/><path d="M11.13,9.82a.79.79,0,0,0,.51,1,.78.78,0,0,0,.47-1.49A.74.74,0,0,0,11.13,9.82Z"/><path d="M13.9,10.76a.74.74,0,0,0,.39,1h0A.79.79,0,1,0,15,10.33h0a.79.79,0,0,0-1.06.43Z"/><path d="M32.49,11.69a.78.78,0,1,0,.32-.07h-.16C32.61,11.69,32.57,11.69,32.49,11.69Z"/><path d="M38.12,10.8A.79.79,0,0,0,38.9,10a.36.36,0,0,0,0-.2.74.74,0,0,0-1-.51.73.73,0,0,0-.5,1A.72.72,0,0,0,38.12,10.8Z"/><path d="M34.68,11.38a.79.79,0,0,0,1,.39.77.77,0,1,0-.63-1.4.74.74,0,0,0-.39,1Z"/><path d="M43.82,10.13a.78.78,0,1,0-.7-.86h0A.79.79,0,0,0,43.82,10.13Z"/><path d="M46.4,10.76a.78.78,0,1,0-.43-1A.78.78,0,0,0,46.4,10.76Z"/><path d="M41,10.21a.78.78,0,1,0,0-1.56h-.12a.73.73,0,0,0-.66.86A.8.8,0,0,0,41,10.21Z"/><path d="M48.43,11.69a.81.81,0,0,0,.94.63.79.79,0,0,0-.2-1.56.82.82,0,0,0-.55.23A.91.91,0,0,0,48.43,11.69Z"/><path d="M32,10.09a.77.77,0,1,0-.55-1.32.76.76,0,0,0,0,1.09A.7.7,0,0,0,32,10.09Z"/><path d="M41.63,3a.51.51,0,0,0,.24,0,.8.8,0,0,0,.58-1,.8.8,0,0,0-1.56.39A.77.77,0,0,0,41.63,3Z"/><path d="M38.78,4.08A1.05,1.05,0,0,0,39.13,4a.78.78,0,0,0,.36-1,.8.8,0,0,0-1.06-.36.79.79,0,0,0-.35,1.06.83.83,0,0,0,.7.43Z"/><path d="M36.21,5.68a.78.78,0,0,0,0-1.56.7.7,0,0,0-.47.15.77.77,0,0,0-.16,1.1A.84.84,0,0,0,36.21,5.68Z"/><path d="M33.94,7.71a.78.78,0,1,0-.78-.78.73.73,0,0,0,.23.55A.8.8,0,0,0,33.94,7.71Z"/><path d="M44.6,2.36h.08a.78.78,0,1,0-.86-.7A.8.8,0,0,0,44.6,2.36Z"/><path d="M47.65,2.32a.78.78,0,1,0-.78-.78A.78.78,0,0,0,47.65,2.32Z"/><path d="M18,10.09a.77.77,0,1,0-.55-1.32A.78.78,0,0,0,18,10.09Z"/><path d="M13.32,5.52a.75.75,0,0,0,1.09-.15.77.77,0,0,0-.15-1.1h0a.78.78,0,0,0-1.1.16.76.76,0,0,0,.16,1.09Z"/><path d="M10.86,4a1.05,1.05,0,0,0,.35.08.78.78,0,0,0,0-1.56.8.8,0,0,0-.7.43A.77.77,0,0,0,10.86,4Z"/><path d="M16.05,7.71a.78.78,0,1,0-.54-1.33.75.75,0,0,0,0,1.1.71.71,0,0,0,.54.23Z"/><path d="M34.25,14.78a.76.76,0,0,0-1.09-.19.77.77,0,0,0-.2,1.09l.12.12a.91.91,0,0,0,.7.19.75.75,0,0,0,.59-.94A2.38,2.38,0,0,0,34.25,14.78Z"/><path d="M44.48,18.45a.76.76,0,0,0,0,1.1h0a.78.78,0,0,0,1.09,0,.75.75,0,0,0,0-1.09.77.77,0,0,0-1.1,0Z"/><path d="M39,15.64a.78.78,0,1,0,1-.51h0a.77.77,0,0,0-1,.51Z"/><path d="M47.41,21.26a.77.77,0,1,0-1.4.63h0a.82.82,0,0,0,1.05.39A.73.73,0,0,0,47.41,21.26Z"/><path d="M41.91,16.69a.77.77,0,0,0,.27,1.06h0a.81.81,0,0,0,1.06-.27A.77.77,0,0,0,43,16.42a.74.74,0,0,0-1.05.27Z"/><path d="M36.79,14.51a.76.76,0,0,0-.86.7.82.82,0,0,0,.74.86h0a.78.78,0,0,0,.78-.78.8.8,0,0,0-.7-.78Z"/><path d="M47,24.86a.77.77,0,0,0,.7.47.79.79,0,0,0,.78-.79.78.78,0,0,0-.78-.78h-.16a.8.8,0,0,0-.62.78A.94.94,0,0,0,47,24.86Z"/><path d="M21.29,29.5c-.08.12-.12.28-.2.4.39.42.74.89,1.13,1.36a38.45,38.45,0,0,1,4.14-7.38.78.78,0,0,0-.11-1.09.76.76,0,0,0-1,0,39.08,39.08,0,0,0-5.31,5.82L21,29.86C21.13,29.7,21.21,29.62,21.29,29.5Z"/><path d="M49.21,49.19H46.28c-.08-2.42,0-10.47,3.56-15.15a.77.77,0,0,0-.16-1.1.93.93,0,0,0-.94,0A21.31,21.31,0,0,0,44.64,37a85.76,85.76,0,0,1,3.28-8.59.79.79,0,0,0-.39-1.05.86.86,0,0,0-.86.11A25.24,25.24,0,0,0,38,43.88c-1.17-1.64-2.61-3.36-2.69-3.48a.81.81,0,0,0-1.1-.12.8.8,0,0,0-.23.9c.47,1.1.86,5.16,1.05,7.89h-2.3c-.08-2.46,0-10.47,3.4-15.19a.76.76,0,0,0-.16-1.09.81.81,0,0,0-.94,0,19.51,19.51,0,0,0-4.64,5.62,40.2,40.2,0,0,1,6.52-14.69.79.79,0,0,0-.12-1.09.77.77,0,0,0-1,0,36.71,36.71,0,0,0-10.35,16,47.05,47.05,0,0,0-9.65-12,.79.79,0,0,0-1.09.08.76.76,0,0,0,0,1c3.12,3.47,8.35,17.53,9.17,19.76v1.6H21.87V46.77c-.39-1-.78-2.07-1.21-3.17a36.72,36.72,0,0,0,0,5.55H19.06a36.17,36.17,0,0,1,.39-8.51c-.35-.86-.74-1.76-1.09-2.62a38,38,0,0,0-.86,11.13H14.84A32.06,32.06,0,0,1,17.5,36.07c-.32-.67-.59-1.29-.9-1.92a33.08,33.08,0,0,0-3.32,15H11.72a32.7,32.7,0,0,1,.62-7.07A55.28,55.28,0,0,0,10.27,33a39,39,0,0,1,3.09,5.15c.19-.66.43-1.32.7-2a38,38,0,0,0-5.7-7.85.77.77,0,0,0-1.1,0,.79.79,0,0,0-.15.86,53,53,0,0,1,4.22,20H9.76A20.73,20.73,0,0,0,2.42,32.94a.76.76,0,0,0-1.09.16.81.81,0,0,0,0,.94c2,2.77,2.85,6.67,3.2,9.92-1.41-1.49-3.12-3.05-3.2-3.17a.8.8,0,0,0-1.1,0,.77.77,0,0,0-.07.94c.62,1,1.56,5.11,2.07,7.42H.78a.78.78,0,0,0,0,1.56H49.21a.78.78,0,1,0,0-1.56Zm-4.49,0H42.18a18.31,18.31,0,0,1,4.06-11.64,33.77,33.77,0,0,0-1.52,11.64ZM45,31.5a80.25,80.25,0,0,0-3.86,12.85v.11a19.21,19.21,0,0,0-.51,4.77h-1A23.13,23.13,0,0,1,45,31.5ZM36.17,44a22.17,22.17,0,0,1,1.71,2.58A19.2,19.2,0,0,0,38,49.23H36.63C36.6,48.29,36.44,46,36.17,44Zm-3.71-5.78a37,37,0,0,0-1.29,10.94h-1.6a30.42,30.42,0,0,1-.08-3.28A19.89,19.89,0,0,1,32.46,38.25ZM19.29,32.63a33.18,33.18,0,0,1,5.35,8.2s0,.08.08.12a25.08,25.08,0,0,0-.58,3C23,41,21.17,36.42,19.29,32.63ZM31.83,29.5A41,41,0,0,0,28,45.71a21.2,21.2,0,0,0-.23,3.48H25.39A32.59,32.59,0,0,1,31.83,29.5ZM8.2,49.19H6.29A35.9,35.9,0,0,0,5,38.21,18.89,18.89,0,0,1,8.2,49.19Zm-5.58-5a31.37,31.37,0,0,1,2.11,2.34c0,1.14,0,2.07,0,2.66H3.79C3.55,48.13,3.12,46.06,2.62,44.19Z"/><path d="M21.87,17.9H23a.78.78,0,0,0,.78-.78V10.48h2.35v6.64a.78.78,0,0,0,.78.78h1.17V29.31c.47-.74,1-1.48,1.56-2.23v-10a.78.78,0,0,0-.78-.78H27.73V10.48H28.9a.78.78,0,0,0,.78-.78,4.69,4.69,0,0,0-9.37,0,.78.78,0,0,0,.78.78h1.17v5.86H21.09a.78.78,0,0,0-.78.78v8.52c.51-.59,1-1.17,1.56-1.76ZM25,6.58a3.12,3.12,0,0,1,3,2.34H22A3.09,3.09,0,0,1,25,6.58Z"/></g></svg>