<svg id="Layer_1" data-name="Layer 1" xmlns="http://www.w3.org/2000/svg" xmlns:xlink="http://www.w3.org/1999/xlink" viewBox="0 0 50 50"><defs><style>.cls-1{fill:none;}.cls-2{clip-path:url(#clip-path);}</style><clipPath id="clip-path"><rect class="cls-1" x="0.08" width="50" height="50"/></clipPath></defs><g class="cls-2"><path d="M2,56.51a25,25,0,0,0-5.72-3.19.73.73,0,0,0-.77.22c-.11.33-.22.66,0,.88A20.76,20.76,0,0,0-.75,59a18.82,18.82,0,0,0-4.18-.11.52.52,0,0,0-.55.55.75.75,0,0,0,.22.77,15.46,15.46,0,0,0,3.52,2H-5.15a.7.7,0,0,0-.65.66.7.7,0,0,0,.65.66H3c1.1.11,2.09.22,2.86.22H7.72c.66,0,1.32-.11,1.87-.11H30.36a.66.66,0,0,0,0-1.32H26.41v-.77c.11-.11.22-.11.33-.33L29,57.06a.61.61,0,0,0-.33-.88.74.74,0,0,0-1,.33L26.3,59.14,26.19,55,32,44.3l1.43.33c.22,0,.33.11.55.11h0L29.7,52.66a.61.61,0,0,0,.33.88c.11,0,.22.11.33.11a1,1,0,0,0,.66-.33L35.53,45a28.37,28.37,0,0,0,4.29.44h.11A22.05,22.05,0,0,0,48,44a.71.71,0,0,0,0-1.32,26.41,26.41,0,0,0-5.38-1.2,32.24,32.24,0,0,0,6.48-5.17,1.49,1.49,0,0,0,0-1,.67.67,0,0,0-.77-.33,29.42,29.42,0,0,0-7.91,2.75c.22-.22.44-.55.66-.77a29.62,29.62,0,0,0,3.95-8,.69.69,0,0,0-.21-.77c-.22-.22-.55-.11-.77,0a31.9,31.9,0,0,0-4.84,4.62,39.45,39.45,0,0,0,.66-7.69.7.7,0,0,0-.55-.66c-.33-.11-.55,0-.77.33a31.59,31.59,0,0,0-3.74,8.68,32.25,32.25,0,0,0-3.19-7.48.86.86,0,0,0-.77-.33.7.7,0,0,0-.55.66A35.5,35.5,0,0,0,31,35.62v.11a24,24,0,0,0-5.16-4.84l-.11-4.51a34,34,0,0,0,4.83-.77,31.15,31.15,0,0,0,9.79-4.39.63.63,0,0,0,.22-.77A1.33,1.33,0,0,0,40,19.9a31.72,31.72,0,0,0-7.81.22A38.17,38.17,0,0,0,39.16,11a.65.65,0,0,0-.88-.88,36.24,36.24,0,0,0-9.68,6.71l-.11.11c.33-.66.55-1.32.88-2.09A37.73,37.73,0,0,0,31.68,3.3a.74.74,0,0,0-.44-.66.73.73,0,0,0-.77.22A36.57,36.57,0,0,0,25.53,11,56.65,56.65,0,0,0,23.77.22c-.11,0-.33-.22-.66-.22h0a.74.74,0,0,0-.66.44,43.89,43.89,0,0,0-1.87,12.75v.33a42.54,42.54,0,0,0-6.93-9,.54.54,0,0,0-.77-.11.67.67,0,0,0-.33.77,41.12,41.12,0,0,0,4.07,11.54c.22.33.44.77.66,1.1a2.92,2.92,0,0,1-.66-.55A36.64,36.64,0,0,0,7,12.2a.68.68,0,0,0-.77.22.53.53,0,0,0,0,.77,32,32,0,0,0,6.92,7.59c-1.21-.11-2.52-.22-3.84-.22a26.37,26.37,0,0,0-3.63.22.52.52,0,0,0-.55.55A.53.53,0,0,0,5.3,22a28.13,28.13,0,0,0,9.45,4.06,24.25,24.25,0,0,0,5.83.66L19.92,62H15a33.19,33.19,0,0,0,3.08-1.54.86.86,0,0,0,.33-.77.9.9,0,0,0-.55-.55,15.46,15.46,0,0,0-2.75-.22,9.46,9.46,0,0,0-1.76.11,24.94,24.94,0,0,0,4.29-5.27A.68.68,0,0,0,17.5,53a.73.73,0,0,0-.77-.22A24.06,24.06,0,0,0,11,56.29c0-.11.11-.22.22-.33M5,53.76m10.11,6.81A22.26,22.26,0,0,1,11,61.89a7.43,7.43,0,0,1-1.54.22H7.83v-.22a14.4,14.4,0,0,1,3.08-1h.33A14.66,14.66,0,0,1,15.08,60.57Zm-.33-5.16a21.73,21.73,0,0,1-3.19,3.4c-.32.22-.54.55-.87.77h-.11A5.45,5.45,0,0,0,9.15,60,14.94,14.94,0,0,1,11,58.16,22.42,22.42,0,0,1,14.75,55.41ZM11.13,51a24.51,24.51,0,0,1-1.32,4.51,16.1,16.1,0,0,1-1.43,2.75c.11-.77.11-1.54.22-2.31v-.11a5.36,5.36,0,0,0,.33-.77A17.75,17.75,0,0,1,11.13,51Zm-4,3.74v1h0a29.69,29.69,0,0,1-.66,5.16H6.4a1.2,1.2,0,0,0-.11-.55V60a2.73,2.73,0,0,0-.11-.88v-.22c0-.65-.11-1.53-.11-2.3a10.69,10.69,0,0,0,.11-2M4.31,55.85l.11.22c.11.33.33.55.44.88v1.86a24.61,24.61,0,0,1-1.43-2.52,26.37,26.37,0,0,1-1.65-4.62A27.85,27.85,0,0,1,4.31,55.85ZM-2,55.63a19.76,19.76,0,0,1,3.63,2.31c.77.66,1.54,1.42,2.31,2.19-.55-.22-1.1-.44-1.76-.66a8.36,8.36,0,0,1-1.1-.87A11.4,11.4,0,0,1-2,55.63Zm3.19,6.15a20.21,20.21,0,0,1-3.74-1.54,20.86,20.86,0,0,1,4.07.55c1.1.33,2.09.77,3,1.1-.11.11-.22.11-.33.22H3.1ZM31.9,42.54a18.58,18.58,0,0,1-3.41-1.42,19.69,19.69,0,0,1-2.74-1.76c-.55-.44-1.1-.88-1.54-1.21.22.11.55.11.88.22a28.11,28.11,0,0,1,4.06,1.54.38.38,0,0,0,.22.11c1,.55,2,1.21,3,1.87a5.67,5.67,0,0,1,.88.76v.11A1.89,1.89,0,0,1,31.9,42.54ZM26,37.27V35.62a21.91,21.91,0,0,0,1.32,2.09A6.2,6.2,0,0,0,26,37.27Zm-4.18-2.53h.66a.66.66,0,0,0,0-1.32H21.9l.11-4h.66a.66.66,0,1,0,0-1.32H22V26.93h1.32c.55,0,1-.11,1.21-.11l.11,3.63a.4.4,0,0,0-.33.11.68.68,0,0,0-.22.77s.22.55.55,1.43l.11,4.18a19.42,19.42,0,0,0-2.31-.44.84.84,0,0,0-.55.22Zm21-3.85a25.57,25.57,0,0,1-2.86,5.28,23.89,23.89,0,0,1-2.64,3.19c.33-1,.66-2.09,1-3.08.22-.22.33-.55.55-.77A22.27,22.27,0,0,1,42.79,30.89Zm-4.51-3a34.32,34.32,0,0,1-1,6.6c-.11.44-.22.77-.33,1.21h0A39.19,39.19,0,0,1,35.53,40c-.22.55-.44,1.1-.66,1.54h0l-.11.11h-.11V40.46c0-.22.11-.44.11-.77a.66.66,0,0,1,.11-.44c0-.22.11-.55.11-.77s.11-.33.11-.55.11-.77.22-1.1a.4.4,0,0,1,.11-.33c.22-.77.33-1.54.55-2.42A34.82,34.82,0,0,1,38.28,27.92Zm-4.62,7.15L34,36.39l-.33,1.32V38c-.11.33-.11.66-.22,1a22.81,22.81,0,0,1-1.1-3.63,30,30,0,0,1-.77-6.27A30.3,30.3,0,0,1,33.66,35.07Zm-3.52,1.76a20.37,20.37,0,0,1,2.31,3.63A13.17,13.17,0,0,0,30.14,39,14,14,0,0,1,29,37.71,21.78,21.78,0,0,1,26.19,33,25.1,25.1,0,0,1,30.14,36.83Zm7.7-15.5a28.28,28.28,0,0,1-7.59,3.08,36.22,36.22,0,0,1-5.27.87h0v-.11h0v-.1a.57.57,0,0,0-.44-.22h-.11c-.11,0-.11-.11-.22-.11h.22l.11-.11.11-.11h0c0-.11.11-.11.11-.22v-.11a25.18,25.18,0,0,1,5-1.76c.11,0,.33-.11.44-.11A27,27,0,0,1,37.84,21.33ZM29.59,18a33.49,33.49,0,0,1,7.26-5.28,38.05,38.05,0,0,1-5.72,6.93,7.57,7.57,0,0,1-1.43,1.21.4.4,0,0,0-.33.11c-.55.11-1.1.33-1.53.44-.11,0-.33.11-.44.11a4.6,4.6,0,0,0-1.1.44c-.22,0-.22,0-.33.11A25.84,25.84,0,0,1,29.59,18Zm-3.51-4.29a34.27,34.27,0,0,1,4.17-7.91,34.5,34.5,0,0,1-2.09,8.68,31.39,31.39,0,0,1-2.85,5.83V20a1.4,1.4,0,0,1,.11-.66V15.06c.11-.33.22-.55.33-.88Zm-3-10.33a43.67,43.67,0,0,1,1.1,9.78v6.6a.82.82,0,0,1-.11.55v.44a1,1,0,0,1-.11.55.83.83,0,0,1-.11.44.66.66,0,0,1-.11.44.4.4,0,0,1-.11.33.4.4,0,0,1-.11.33l-.11.22h0c0,.11-.11.11-.11.22H23l-.33-.22h0a33.32,33.32,0,0,1-.44-4,20.33,20.33,0,0,1-.11-2.64c0-1-.11-2.09-.11-3.19A44,44,0,0,1,23.11,3.41ZM14.42,7.26A42.54,42.54,0,0,1,19.81,15c.33.55.55,1.1.88,1.65v.55a7.26,7.26,0,0,0,.11,1.54,2.15,2.15,0,0,0,.11.77c0,.44.11.88.11,1.21v.22a30.37,30.37,0,0,1-3.08-5A35.89,35.89,0,0,1,14.42,7.26Zm-5.82,7a39.81,39.81,0,0,1,7.25,4.07,39.89,39.89,0,0,1,4.84,4.51,21.83,21.83,0,0,0-4.29-1.43c-.55-.44-1.21-.77-1.87-1.32A29.76,29.76,0,0,1,8.6,14.29Zm6.48,10.56A31.91,31.91,0,0,1,7.83,22H9.26a24.7,24.7,0,0,1,6.37.77h.22A26.81,26.81,0,0,1,21,24.63a.68.68,0,0,0,0,.65h-.44v.22A41.32,41.32,0,0,1,15.08,24.85Zm6.16,37.26.22-8.68h1.76a.66.66,0,0,0,0-1.32H21.57l.11-7H23a.66.66,0,1,0,0-1.32H21.68l.11-6.15a30.4,30.4,0,0,0,3,2.75L25,54.64h0l.11,7.47Zm4.84-20.77A16.44,16.44,0,0,0,28,42.43a21.59,21.59,0,0,0,2.85,1.21l-4.5,8.25Zm13.74,2.41a22.46,22.46,0,0,1-3.74-.33c0-.11-.11-.22-.11-.33v-.33a.83.83,0,0,0,.44-.11,17.77,17.77,0,0,1,3.41-.22h.44a20.79,20.79,0,0,1,5.05.66A19.68,19.68,0,0,1,39.82,43.75Zm1.43-3.29a5.14,5.14,0,0,1-1.1.55l-.11.11h-.22a14.74,14.74,0,0,0-2.2.11,23.22,23.22,0,0,1,3-2,30.64,30.64,0,0,1,5.6-2.31A36.66,36.66,0,0,1,41.25,40.46Z"/></g></svg>