<?xml version="1.0" encoding="utf-8"?>
<!-- Generator: Adobe Illustrator 25.4.1, SVG Export Plug-In . SVG Version: 6.00 Build 0)  -->
<svg version="1.1" id="Layer_1" xmlns="http://www.w3.org/2000/svg" xmlns:xlink="http://www.w3.org/1999/xlink" x="0px" y="0px"
	 viewBox="0 0 50 50" style="enable-background:new 0 0 50 50;" xml:space="preserve">
<style type="text/css">
	.st0{clip-path:url(#SVGID_00000039104564464182317320000007441696301455233957_);}
	.st1{clip-path:url(#SVGID_00000006674104489454338920000015963845811282014882_);}
</style>
<g>
	<g>
		<path d="M-92.2,131.7c-0.1-0.2-0.4-0.4-0.8-0.3c-0.1,0-3.8,0.7-7.9,2.7c0.2-0.2,0.4-0.5,0.7-0.8c2.7-4,4-7.9,4-8
			c0.1-0.3,0-0.5-0.2-0.8c-0.2-0.2-0.5-0.1-0.8,0c-0.1,0.1-2.4,1.8-4.8,4.6c0.8-4.2,0.7-7.5,0.7-7.7c0-0.3-0.2-0.5-0.5-0.7
			c-0.3-0.1-0.5,0-0.8,0.3c-0.1,0.1-2.4,3.7-3.7,8.7c-1.2-4.3-3.1-7.3-3.2-7.5c-0.1-0.2-0.4-0.3-0.8-0.3c-0.3,0.1-0.5,0.3-0.5,0.7
			c0,0.2-0.3,4.4,0.8,9.3v0.1c-1.9-2.4-4.1-4.1-5.2-4.8l-0.1-4.5c1.6-0.1,3.3-0.4,4.8-0.8c5.6-1.4,9.7-4.3,9.8-4.4
			c0.2-0.1,0.3-0.4,0.2-0.8c-0.1-0.2-0.3-0.4-0.5-0.5c-0.2,0-3.5-0.4-7.8,0.2c4.5-4.3,6.8-9,6.9-9.1c0.1-0.2,0.1-0.5-0.1-0.8
			s-0.5-0.2-0.8-0.1c0,0-5.1,2.2-9.7,6.7c0,0,0,0-0.1,0.1c0.3-0.7,0.5-1.3,0.9-2.1c2.2-5.9,2.3-11.2,2.3-11.5s-0.2-0.5-0.4-0.7
			c-0.2-0.1-0.5,0-0.8,0.2c-0.1,0.1-2.9,3.4-4.9,8.1c-0.3-5.9-1.8-10.6-1.8-10.8c-0.1,0-0.3-0.2-0.7-0.2l0,0c-0.3,0-0.5,0.2-0.7,0.4
			c-0.1,0.2-1.9,5.8-1.9,12.8c0,0.1,0,0.2,0,0.3c-3.1-5.4-6.8-8.9-6.9-9c-0.2-0.2-0.5-0.3-0.8-0.1c-0.2,0.1-0.4,0.4-0.3,0.8
			c0,0.2,1,5.7,4.1,11.5c0.2,0.3,0.4,0.8,0.7,1.1c-0.2-0.1-0.4-0.3-0.7-0.5c-4.7-3.5-9.5-4.9-9.7-5.1c-0.3-0.1-0.5,0-0.8,0.2
			c-0.2,0.2-0.2,0.5,0,0.8c0.1,0.2,2.5,4.1,6.9,7.6c-1.2-0.1-2.5-0.2-3.8-0.2c-2.2,0-3.6,0.2-3.6,0.2c-0.3,0-0.5,0.2-0.5,0.5
			c-0.1,0.2,0,0.5,0.2,0.7c0.1,0.1,4.1,2.9,9.5,4.1c1.8,0.4,3.7,0.7,5.8,0.7l-0.7,35.3h-4.9c1.9-0.8,3-1.5,3.1-1.5
			c0.2-0.1,0.3-0.4,0.3-0.8c-0.1-0.3-0.3-0.4-0.5-0.5c0,0-1.1-0.2-2.7-0.2c-0.5,0-1.2,0-1.8,0.1c2.7-2.5,4.2-5.2,4.3-5.3
			c0.1-0.2,0.1-0.5-0.1-0.8c-0.2-0.2-0.5-0.3-0.8-0.2c-0.1,0-2.9,1.2-5.7,3.5c0-0.1,0.1-0.2,0.2-0.3c1.6-3.8,1.8-7.4,1.8-7.5
			c0-0.3-0.1-0.5-0.4-0.7c-0.2-0.1-0.5,0-0.8,0.2c-0.1,0.1-1.6,1.8-3.1,4.4c-0.1-3.5-0.9-6-0.9-6.2c-0.1-0.3-0.3-0.4-0.7-0.5
			c-0.3,0-0.5,0.2-0.7,0.4c0,0.1-1.2,3.4-1.5,7.6c-1.8-3.2-3.8-5.3-3.8-5.3c-0.3-0.1-0.7-0.1-1,0c-0.2,0.1-0.4,0.4-0.4,0.7
			c0,0.1,0.4,3.6,2.3,7.4c-2.9-2.2-5.6-3.1-5.7-3.2c-0.2-0.1-0.5,0-0.8,0.2c-0.1,0.3-0.2,0.7,0,0.9c0.1,0.1,1.3,2.4,3.7,4.6
			c-2.3-0.3-4.1-0.1-4.2-0.1c-0.3,0-0.5,0.2-0.5,0.5c-0.1,0.2,0,0.5,0.2,0.8c0.1,0.1,1.4,1.1,3.5,2h-3.4c-0.3,0-0.7,0.3-0.7,0.7
			c0,0.3,0.3,0.7,0.7,0.7h8.1c1.1,0.1,2.1,0.2,2.9,0.2h0.1c0,0,0,0,0.1,0l0,0c0.5,0,1,0,1.3,0l0,0l0,0c0.2,0,0.3,0,0.3,0l0,0
			c0.7,0,1.3-0.1,1.9-0.1h10.2h6.6h4c0.3,0,0.7-0.3,0.7-0.7s-0.3-0.7-0.7-0.7h-4V158c0.1-0.1,0.2-0.1,0.3-0.3l2.3-4.2
			c0.2-0.3,0-0.8-0.3-0.9c-0.3-0.2-0.8,0-1,0.3l-1.4,2.6l-0.1-4.2l5.8-10.7c0.4,0.1,1,0.2,1.4,0.3c0.2,0,0.3,0.1,0.5,0.1l0,0
			l-4.3,7.9c-0.2,0.3,0,0.8,0.3,0.9c0.1,0,0.2,0.1,0.3,0.1c0.2,0,0.4-0.1,0.7-0.3l4.5-8.4c1.4,0.2,2.9,0.4,4.3,0.4c0,0,0,0,0.1,0
			c4.4,0,7.9-1.3,8-1.4c0.2-0.1,0.4-0.3,0.4-0.7s-0.2-0.5-0.4-0.7c-0.1,0-2.3-0.9-5.4-1.2c3.8-2.3,6.4-5.1,6.5-5.2
			C-92.1,132.2-92.1,131.9-92.2,131.7z M-126.2,157c-1.1,0.4-2.4,1-4.1,1.3c-0.5,0.1-1,0.2-1.5,0.2h-1.6c0-0.1,0-0.1,0-0.2
			c1-0.4,2-0.8,3.1-1c0.1,0,0.1,0,0.3,0C-128.8,157.1-127.5,156.9-126.2,157z M-126.5,151.8c-0.8,1-1.9,2.3-3.2,3.4
			c-0.3,0.2-0.5,0.5-0.9,0.8h-0.1c-0.5,0.1-1,0.2-1.4,0.4c0.5-0.7,1.2-1.3,1.9-1.9C-128.9,153.3-127.6,152.5-126.5,151.8z
			 M-130.1,147.4c-0.2,1.2-0.7,2.9-1.3,4.5c-0.4,1-0.9,2-1.4,2.7c0.1-0.8,0.1-1.5,0.2-2.3v-0.1c0.1-0.2,0.2-0.4,0.3-0.8
			C-131.8,149.9-130.9,148.5-130.1,147.4z M-135.1,151c0.1-2,0.3-3.7,0.7-5.2c0.2,1.4,0.3,3.3,0.3,5.3c0,0.3,0,0.7,0,1l0,0l0,0
			c-0.1,2-0.3,3.8-0.7,5.2h-0.1l0,0l0,0c0-0.1,0-0.3-0.1-0.5c0-0.1,0-0.2,0-0.3c0-0.2,0-0.5-0.1-0.9c0-0.1,0-0.1,0-0.2
			c0-0.7-0.1-1.5-0.1-2.3C-135.1,152.5-135.1,151.8-135.1,151z M-136.9,152.2l0.1,0.2c0.1,0.3,0.3,0.5,0.4,0.9c0,0.1,0,0.1,0,0.2
			c0,0.5,0,1,0,1.4c0,0.1,0,0.1,0,0.2c-0.4-0.8-1-1.5-1.4-2.5c-0.8-1.6-1.3-3.3-1.6-4.6C-138.7,149.2-137.7,150.6-136.9,152.2z
			 M-143.2,152c1.1,0.5,2.4,1.3,3.6,2.3c0.8,0.7,1.5,1.4,2.3,2.2c-0.5-0.2-1.1-0.4-1.8-0.7c-0.3-0.2-0.8-0.5-1.1-0.9
			C-141.5,154.1-142.6,153-143.2,152z M-140,158.2c-1.4-0.4-2.7-1-3.7-1.5c1.1,0,2.5,0.2,4.1,0.5c1.1,0.3,2.1,0.8,3,1.1
			c-0.1,0.1-0.2,0.1-0.3,0.2h-1.1C-138.8,158.4-139.4,158.3-140,158.2z M-109.4,138.9c-1.2-0.3-2.3-0.9-3.4-1.4
			c-0.9-0.4-1.9-1.1-2.7-1.8c-0.5-0.4-1.1-0.9-1.5-1.2c0.2,0.1,0.5,0.1,0.9,0.2c1.5,0.4,2.9,1,4.1,1.5c0,0,0.1,0.1,0.2,0.1
			c1,0.5,2,1.2,3,1.9c0.3,0.2,0.7,0.5,0.9,0.8c0,0.1,0,0.1,0,0.1C-108.5,139.3-108.9,139.2-109.4,138.9z M-115.3,133.7V132
			c0.3,0.7,0.9,1.4,1.3,2.1C-114.4,133.9-114.8,133.8-115.3,133.7z M-119.5,131.1h0.7c0.3,0,0.7-0.3,0.7-0.7s-0.3-0.7-0.7-0.7h-0.5
			l0.1-4h0.7c0.3,0,0.7-0.3,0.7-0.7s-0.3-0.7-0.7-0.7h-0.7v-1.2c0.2,0,0.3,0,0.5,0h0.8c0.5,0,1-0.1,1.2-0.1l0.1,3.6
			c-0.1,0-0.2,0-0.3,0.1c-0.2,0.2-0.3,0.4-0.2,0.8c0,0,0.2,0.5,0.5,1.4l0.1,4.2c-1.3-0.3-2.3-0.4-2.3-0.4c-0.2,0-0.4,0.1-0.5,0.2
			L-119.5,131.1z M-98.5,127.3c-0.5,1.4-1.5,3.4-2.9,5.3c-0.8,1.1-1.6,2.2-2.6,3.2c0.3-1,0.7-2.1,1-3.1c0.2-0.2,0.3-0.5,0.5-0.8
			C-101.1,129.8-99.6,128.3-98.5,127.3z M-103,124.3c-0.1,1.8-0.3,4.1-1,6.6c-0.1,0.4-0.2,0.8-0.3,1.2l0,0l0,0
			c-0.4,1.5-0.9,3-1.4,4.3c-0.2,0.5-0.4,1.1-0.7,1.5l0,0l-0.1,0.1l0,0c0,0,0,0-0.1,0l0,0c0,0,0,0,0-0.1v-0.1c0-0.2,0-0.3,0-0.5
			c0-0.1,0-0.2,0-0.4c0-0.2,0.1-0.4,0.1-0.8c0-0.1,0-0.3,0.1-0.4c0-0.2,0.1-0.5,0.1-0.8c0-0.2,0.1-0.3,0.1-0.5
			c0.1-0.3,0.1-0.8,0.2-1.1c0-0.1,0-0.2,0.1-0.3c0.2-0.8,0.3-1.5,0.5-2.4C-104.6,128.1-103.7,125.9-103,124.3z M-107.6,131.5
			c0.1,0.4,0.2,0.9,0.3,1.3c-0.1,0.4-0.2,0.9-0.3,1.3c0,0.1,0,0.2,0,0.3c-0.1,0.3-0.1,0.7-0.2,1c-0.4-1.2-0.9-2.4-1.1-3.6
			c-0.5-2.4-0.8-4.7-0.8-6.3C-109,127-108.1,129-107.6,131.5z M-111.1,133.2c0.9,1.1,1.6,2.3,2.3,3.6c-0.8-0.5-1.5-1.1-2.3-1.4
			c-0.3-0.4-0.8-0.8-1.1-1.3c-1.4-1.8-2.3-3.5-2.9-4.7C-114,130.1-112.5,131.6-111.1,133.2z M-103.4,117.7c-1.6,1-4.4,2.3-7.6,3.1
			c-1.6,0.4-3.4,0.7-5.3,0.9l0,0l0,0c0,0,0,0,0-0.1l0,0c0,0,0,0,0-0.1c-0.1-0.1-0.2-0.2-0.4-0.2c0,0,0,0-0.1,0l0,0
			c-0.1,0-0.1-0.1-0.2-0.1l0,0l0,0l0,0l0,0l0,0c0,0,0,0,0.1,0c0,0,0,0,0.1,0l0,0l0.1-0.1c0,0,0,0,0.1-0.1l0,0l0,0
			c0-0.1,0.1-0.1,0.1-0.2v-0.1c1.8-0.8,3.4-1.4,5.1-1.8c0.1,0,0.3-0.1,0.4-0.1C-108,117.8-105.2,117.7-103.4,117.7z M-111.7,114.4
			c2.6-2.5,5.4-4.3,7.3-5.3c-1.1,1.8-3.1,4.4-5.7,6.9c-0.4,0.4-0.9,0.9-1.4,1.2c-0.1,0-0.2,0-0.3,0.1c-0.5,0.1-1.1,0.3-1.5,0.4
			c-0.1,0-0.3,0.1-0.4,0.1c-0.3,0.1-0.8,0.2-1.1,0.4c-0.2,0-0.2,0-0.3,0.1C-114.2,117-113,115.6-111.7,114.4z M-115.2,110.1
			c1.2-3.4,3-6.2,4.2-7.9c-0.2,2.1-0.8,5.3-2.1,8.7c-0.9,2.3-1.9,4.3-2.9,5.8c0-0.1,0-0.2,0-0.3c0-0.2,0-0.4,0.1-0.7
			c0-0.1,0-0.3,0-0.4c0-0.2,0-0.5,0-0.8c0-0.1,0-0.3,0-0.4c0-0.3,0-0.5,0-0.9c0-0.1,0-0.2,0-0.4c0-0.3,0-0.8,0-1.1
			c0-0.1,0-0.2,0-0.2c0.1-0.3,0.2-0.5,0.3-0.9L-115.2,110.1z M-118.1,99.8c0.5,2.3,1.1,5.8,1.1,9.8c0,0.5,0,1.1,0,1.6
			c0,0.4,0,0.8,0,1.2c0,0.1,0,0.1,0,0.2c0,0.3,0,0.7,0,1c0,0.1,0,0.2,0,0.3c0,0.2,0,0.5,0,0.8c0,0.1,0,0.2,0,0.3c0,0.2,0,0.4,0,0.7
			c0,0.1,0,0.3,0,0.4c0,0.2,0,0.4-0.1,0.5c0,0.1,0,0.3,0,0.4c0,0.2,0,0.3-0.1,0.5c0,0.1,0,0.2-0.1,0.4c0,0.1,0,0.3-0.1,0.4
			c0,0.1,0,0.2-0.1,0.3c0,0.1,0,0.2-0.1,0.3l-0.1,0.2l0,0c0,0.1-0.1,0.1-0.1,0.2l0,0l0,0h-0.1c-0.1,0-0.1,0-0.2,0l-0.3-0.2l0,0
			c-0.2-1.1-0.3-2.4-0.4-4c-0.1-0.9-0.1-1.6-0.1-2.6s-0.1-2.1-0.1-3.2C-119.2,105.6-118.7,102.1-118.1,99.8z M-126.8,103.7
			c1.4,1.6,3.6,4.4,5.4,7.7c0.3,0.5,0.5,1.1,0.9,1.6c0,0.2,0,0.3,0,0.5c0,0.5,0,1,0.1,1.5c0,0.2,0,0.4,0.1,0.8
			c0,0.4,0.1,0.9,0.1,1.2c0,0.1,0,0.2,0,0.2c-1.2-1.6-2.3-3.3-3.1-4.9C-125.2,109-126.3,105.9-126.8,103.7z M-132.7,110.7
			c1.8,0.8,4.5,2.1,7.3,4.1c2,1.5,3.6,3.2,4.8,4.5c-1.4-0.7-2.9-1.1-4.3-1.4c-0.5-0.4-1.2-0.8-1.9-1.3
			C-129.5,114.5-131.4,112.2-132.7,110.7z M-126.2,121.2c-3.1-0.8-5.6-2-7.3-2.9c0.4,0,0.9,0,1.4,0c2.2,0,4.3,0.2,6.4,0.8h0.1
			c0,0,0,0,0.1,0c1.6,0.4,3.4,1,5.2,1.9c-0.1,0.2-0.1,0.4,0,0.7h-0.4v0.2C-122.7,121.8-124.5,121.6-126.2,121.2z M-120,158.5
			l0.2-8.7h1.8c0.3,0,0.7-0.3,0.7-0.7s-0.3-0.7-0.7-0.7h-1.6l0.1-7h1.3c0.3,0,0.7-0.3,0.7-0.7s-0.3-0.7-0.7-0.7h-1.3l0.1-6.2
			c0.1,0.1,1.2,1.3,3,2.7l0.2,14.3l0,0l0,0l0.1,7.5H-120L-120,158.5z M-115.2,137.7c0.7,0.4,1.2,0.8,1.9,1.1
			c0.9,0.4,1.9,0.9,2.9,1.2l-4.5,8.2L-115.2,137.7z M-101.4,140.2c-1.2,0-2.4-0.1-3.7-0.3c0-0.1-0.1-0.2-0.1-0.3c0-0.1,0-0.2,0-0.3
			c0.1,0,0.2,0,0.4-0.1c1.1-0.2,2.3-0.2,3.4-0.2c0.1,0,0.2,0,0.4,0c2,0,3.7,0.3,5.1,0.7C-97.4,139.8-99.3,140.3-101.4,140.2z
			 M-100,136.9c-0.3,0.2-0.8,0.4-1.1,0.5l-0.1,0.1c-0.1,0-0.1,0-0.2,0c-0.8,0-1.4,0-2.2,0.1c1-0.8,2-1.4,3-2
			c2.1-1.1,4.1-1.9,5.6-2.3C-96.3,134.3-97.9,135.6-100,136.9z"/>
		<path d="M-94.7,158.5h-6.7c-0.3,0-0.7,0.3-0.7,0.7s0.3,0.7,0.7,0.7h6.7c0.3,0,0.7-0.3,0.7-0.7C-94.1,158.8-94.4,158.5-94.7,158.5z
			"/>
		<path d="M-104.2,158.5h-3.3c-0.3,0-0.7,0.3-0.7,0.7s0.3,0.7,0.7,0.7h3.3c0.3,0,0.7-0.3,0.7-0.7S-103.9,158.5-104.2,158.5z"/>
	</g>
</g>
<g id="Layer_1_00000143604539732725780510000015355204191539269532_">
	<g>
		<g>
			<path d="M-48.4,24c0.4,0,0.8-0.4,0.8-0.8c0-0.5-0.4-0.8-0.8-0.8h-11.4c-0.4,0-0.8,0.4-0.8,0.8v8.8c0,0.5,0.4,0.8,0.8,0.8h13.5
				c0.4,0,0.8-0.4,0.8-0.8c0-0.5-0.4-0.8-0.8-0.8h-12.7v-7.1h10.6V24z"/>
			<path d="M-47,20h-4.9v-7.1h7c0.4,0,0.8-0.4,0.8-0.8c0-0.5-0.4-0.8-0.8-0.8h-7.9c-0.4,0-0.8,0.4-0.8,0.8v8.7
				c0,0.5,0.4,0.8,0.8,0.8h5.7c0.4,0,0.8-0.4,0.8-0.8C-46.2,20.4-46.6,20-47,20L-47,20z"/>
			<path d="M-59.9,10.5H-44c0.4,0,0.8-0.4,0.8-0.8c0-0.5-0.4-0.8-0.8-0.8h-15.1V1.7h23.9v6.1c0,0.5,0.4,0.8,0.8,0.8
				c0.4,0,0.8-0.4,0.8-0.8v-7c0-0.4-0.4-0.8-0.8-0.8h-25.5c-0.4,0-0.8,0.4-0.8,0.8v8.8C-60.8,10.1-60.4,10.5-59.9,10.5L-59.9,10.5z"
				/>
			<path d="M-54.4,20.8v-8.8c0-0.5-0.3-0.8-0.7-0.8h-14.2c-0.3,0-0.7,0.4-0.7,0.8v8.8c0,0.5,0.3,0.8,0.7,0.8h14.2
				C-54.6,21.7-54.4,21.3-54.4,20.8L-54.4,20.8z M-55.8,20h-12.9v-7.1h12.9C-55.8,12.9-55.8,20-55.8,20z"/>
		</g>
		<path d="M-39.6,39.6h-0.9c-0.4,0-0.8,0.4-0.8,0.8c0,0.3,0.1,0.4,0.3,0.5c0.1,0.1,0.4,0.3,0.5,0.3h0.9c0.4,0,0.8-0.4,0.8-0.8
			C-38.8,39.9-39.2,39.6-39.6,39.6L-39.6,39.6z"/>
		<path d="M-39.6,44.5h-0.9c-0.4,0-0.8,0.4-0.8,0.8c0,0.3,0.1,0.4,0.3,0.5c0.1,0.1,0.4,0.3,0.5,0.3h0.9c0.4,0,0.8-0.4,0.8-0.8
			C-38.8,44.8-39.2,44.5-39.6,44.5L-39.6,44.5z"/>
		<path d="M-38.6,50L-38.6,50c-1.9,0-3.5-1.7-3.5-3.9v-9c0-0.4,0.4-0.8,0.8-0.8h5.3c0.4,0,0.8,0.4,0.8,0.8v9
			C-35.2,48.2-36.7,50-38.6,50z M-40.5,37.9v8.2c0,1.3,0.8,2.2,1.8,2.2h0.1c1,0,1.8-1,1.8-2.2v-8.2H-40.5z"/>
		<path d="M-33.8,30.1h-10.1c-0.9,0-1.7-0.5-2.1-1.3c-0.4-0.8-0.5-1.7-0.3-2.5l4.5-14.8c0.4-1.4,1.6-1.9,2.3-1.9
			c1,0,1.9,0.6,2.3,1.7l5.6,14.8c0.4,0.9,0.3,1.8-0.1,2.6C-32.1,29.6-32.9,30.1-33.8,30.1z M-39.3,11.2c-0.1,0-0.6,0-0.8,0.8
			l-4.5,14.8c-0.1,0.4-0.1,0.9,0.1,1.2c0.1,0.1,0.4,0.5,0.6,0.5h10.1c0.4,0,0.6-0.3,0.8-0.5c0.3-0.4,0.3-0.8,0.1-1.3l-5.6-14.8
			C-38.6,11.7-38.8,11.2-39.3,11.2z"/>
		<path d="M-39.5,29.7v6.6c0,0.5,0.4,0.9,0.9,0.9c0.5,0,0.9-0.4,0.9-0.9v-6.6c0-0.5-0.4-0.9-0.9-0.9C-39.1,29-39.5,29.4-39.5,29.7
			L-39.5,29.7z"/>
		<path d="M-21.2,12.9V20H-31c-0.3,0-0.7,0.4-0.7,0.8c0,0.5,0.3,0.8,0.7,0.8h10.4c0.3,0,0.7-0.4,0.7-0.8v-8.8c0-0.5-0.3-0.8-0.7-0.8
			h-12.9c-0.3,0-0.7,0.4-0.7,0.8c0,0.5,0.3,0.8,0.7,0.8L-21.2,12.9L-21.2,12.9z"/>
		<path d="M-31.2,31.2c-0.4,0-0.8,0.4-0.8,0.8c0,0.5,0.4,0.8,0.8,0.8h6c0.4,0,0.8-0.4,0.8-0.8v-8.8c0-0.5-0.4-0.8-0.8-0.8h-3.9
			c-0.4,0-0.8,0.4-0.8,0.8c0,0.5,0.4,0.8,0.8,0.8h3v7.3H-31.2L-31.2,31.2z"/>
		<path d="M-41.4,2.6h-8.3c-0.5,0-0.9,0.4-0.9,0.8s0.4,0.8,0.9,0.8h8.3c0.5,0,0.9-0.4,0.9-0.8S-40.9,2.6-41.4,2.6L-41.4,2.6z"/>
		<path d="M-37.4,2.7h-0.9c-0.4,0-0.8,0.3-0.8,0.8c0,0.3,0.1,0.4,0.3,0.5c0.1,0.1,0.4,0.3,0.5,0.3h0.9c0.4,0,0.8-0.3,0.8-0.8
			S-37,2.7-37.4,2.7L-37.4,2.7z"/>
	</g>
</g>
<g>
	<path d="M110-62.1H66.9c-1.4,0-2.5,1.2-2.5,2.5c0,1.4,1.2,2.5,2.5,2.5h1v8.2l-3.9-1.7c-0.1,0-0.2-0.1-0.3-0.1h-7.4v-1.1
		c0-0.4-0.3-0.8-0.8-0.8h-9.3c-0.5,0.1-0.8,0.4-0.8,0.8v3.8c0,0.4,0.3,0.8,0.8,0.8h9.5c0.4,0,0.8-0.3,0.8-0.8V-49h7.2l4.9,2.1l0,0
		l0,0l3.4,1.5v15.2c0,1.3,0.7,2.3,1.8,2.8c0.4,0.1,0.7,0.2,1.2,0.2c0.7,0,1.5-0.3,2.1-0.8l10.5-10.5l3.4,1.5l0.6,0.3
		c-0.3,1-0.5,1.9-0.5,2.9c0,5,4,9.1,9.1,9.1c5,0,9.1-4,9.1-9.1c0-5-4-9.1-9.1-9.1c-1.4,0-2.8,0.3-3.9,0.8L109.7-57h0.3
		c1.4,0,2.5-1.2,2.5-2.5C112.5-61,111.4-62.1,110-62.1z M54.5-48.8h-7.9V-51h7.9V-48.8z M75.7-29.2c-0.4,0.4-1,0.5-1.6,0.3
		c-0.5-0.2-0.8-0.7-0.8-1.3v-14.5l12.4,5.4L75.7-29.2z M107.4-33.9c0,4.1-3.4,7.5-7.5,7.5c-4.1,0-7.5-3.4-7.5-7.5
		c0-0.7,0.1-1.5,0.3-2.2l3.9,1.7c0,0.2-0.1,0.3-0.1,0.5c0,1.8,1.5,3.3,3.3,3.3s3.3-1.5,3.3-3.3c0-1.8-1.5-3.3-3.3-3.3
		c-1.1,0-2,0.5-2.5,1.3l-3.9-1.7c1.3-2.3,3.8-3.8,6.5-3.8C104-41.4,107.4-38,107.4-33.9z M98.2-33.9c0-1,0.7-1.7,1.7-1.7
		c1,0,1.7,0.7,1.7,1.7c0,1-0.7,1.7-1.7,1.7C99-32.2,98.2-32.9,98.2-33.9z M90.8-38.8l-21.3-9.3V-57h38.1L90.8-38.8z M110-58.6
		c-15,0-34.4,0-43.1,0c-0.5,0-1-0.4-1-1c0-0.5,0.4-1,1-1H110c0.5,0,1,0.4,1,1C110.9-59.1,110.5-58.6,110-58.6z"/>
</g>
<rect x="-183" y="-58.3" width="50" height="50"/>
<g>
	<defs>
		<rect id="SVGID_1_" x="-139.9" y="0" width="50" height="50"/>
	</defs>
	<clipPath id="SVGID_00000151535970457561633620000010240650314502260140_">
		<use xlink:href="#SVGID_1_"  style="overflow:visible;"/>
	</clipPath>
	<g style="clip-path:url(#SVGID_00000151535970457561633620000010240650314502260140_);">
		<g>
			<path d="M-138,56.5c-2.9-2.2-5.6-3.1-5.7-3.2c-0.2-0.1-0.5,0-0.8,0.2c-0.1,0.3-0.2,0.7,0,0.9c0.1,0.1,1.3,2.4,3.7,4.6
				c-2.3-0.3-4.1-0.1-4.2-0.1c-0.3,0-0.5,0.2-0.5,0.5c-0.1,0.2,0,0.5,0.2,0.8c0.1,0.1,1.4,1.1,3.5,2h-3.4c-0.3,0-0.7,0.3-0.7,0.7
				s0.3,0.7,0.7,0.7h8.1c1.1,0.1,2.1,0.2,2.9,0.2h0.1c0,0,0,0,0.1,0l0,0c0.5,0,1,0,1.3,0l0,0l0,0c0.2,0,0.3,0,0.3,0l0,0
				c0.7,0,1.3-0.1,1.9-0.1h10.2h6.6h4c0.3,0,0.7-0.3,0.7-0.7c0-0.3-0.3-0.7-0.7-0.7h-4v-0.8c0.1-0.1,0.2-0.1,0.3-0.3l2.3-4.2
				c0.2-0.3,0-0.8-0.3-0.9c-0.3-0.2-0.8,0-1,0.3l-1.4,2.6l-0.1-4.2l5.8-10.7c0.4,0.1,1,0.2,1.4,0.3c0.2,0,0.3,0.1,0.5,0.1l0,0
				l-4.3,7.9c-0.2,0.3,0,0.8,0.3,0.9c0.1,0,0.2,0.1,0.3,0.1c0.2,0,0.4-0.1,0.7-0.3l4.5-8.4c1.4,0.2,2.9,0.4,4.3,0.4c0,0,0,0,0.1,0
				c4.4,0,7.9-1.3,8-1.4c0.2-0.1,0.4-0.3,0.4-0.7c0-0.3-0.2-0.5-0.4-0.7c-0.1,0-2.3-0.9-5.4-1.2c3.8-2.3,6.4-5.1,6.5-5.2
				c0.1-0.4,0.1-0.8,0-1c-0.1-0.2-0.4-0.4-0.8-0.3c-0.1,0-3.8,0.7-7.9,2.7c0.2-0.2,0.4-0.5,0.7-0.8c2.7-4,4-7.9,4-8
				c0.1-0.3,0-0.5-0.2-0.8c-0.2-0.2-0.5-0.1-0.8,0c-0.1,0.1-2.4,1.8-4.8,4.6c0.8-4.2,0.7-7.5,0.7-7.7c0-0.3-0.2-0.5-0.5-0.7
				c-0.3-0.1-0.5,0-0.8,0.3c-0.1,0.1-2.4,3.7-3.7,8.7c-1.2-4.3-3.1-7.3-3.2-7.5c-0.1-0.2-0.4-0.3-0.8-0.3c-0.3,0.1-0.5,0.3-0.5,0.7
				c0,0.2-0.3,4.4,0.8,9.3v0.1c-1.9-2.4-4.1-4.1-5.2-4.8l-0.1-4.5c1.6-0.1,3.3-0.4,4.8-0.8c5.6-1.4,9.7-4.3,9.8-4.4
				c0.2-0.1,0.3-0.4,0.2-0.8c-0.1-0.2-0.3-0.4-0.5-0.5c-0.2,0-3.5-0.4-7.8,0.2c4.5-4.3,6.8-9,6.9-9.1c0.1-0.2,0.1-0.5-0.1-0.8
				c-0.2-0.2-0.5-0.2-0.8-0.1c0,0-5.1,2.2-9.7,6.7c0,0,0,0-0.1,0.1c0.3-0.7,0.5-1.3,0.9-2.1c2.2-5.9,2.3-11.2,2.3-11.5
				s-0.2-0.5-0.4-0.7s-0.5,0-0.8,0.2c-0.1,0.1-2.9,3.4-4.9,8.1c-0.3-5.9-1.8-10.6-1.8-10.8c-0.1,0-0.3-0.2-0.7-0.2l0,0
				c-0.3,0-0.5,0.2-0.7,0.4c-0.1,0.2-1.9,5.8-1.9,12.8c0,0.1,0,0.2,0,0.3c-3.1-5.4-6.8-8.9-6.9-9c-0.2-0.2-0.5-0.3-0.8-0.1
				c-0.2,0.1-0.4,0.4-0.3,0.8c0,0.2,1,5.7,4.1,11.5c0.2,0.3,0.4,0.8,0.7,1.1c-0.2-0.1-0.4-0.3-0.7-0.5c-4.7-3.5-9.5-4.9-9.7-5.1
				c-0.3-0.1-0.5,0-0.8,0.2c-0.2,0.2-0.2,0.5,0,0.8c0.1,0.2,2.5,4.1,6.9,7.6c-1.2-0.1-2.5-0.2-3.8-0.2c-2.2,0-3.6,0.2-3.6,0.2
				c-0.3,0-0.5,0.2-0.5,0.5c-0.1,0.2,0,0.5,0.2,0.7c0.1,0.1,4.1,2.9,9.5,4.1c1.8,0.4,3.7,0.7,5.8,0.7l-0.7,35.3h-4.9
				c1.9-0.8,3-1.5,3.1-1.5c0.2-0.1,0.3-0.4,0.3-0.8c-0.1-0.3-0.3-0.4-0.5-0.5c0,0-1.1-0.2-2.7-0.2c-0.5,0-1.2,0-1.8,0.1
				c2.7-2.5,4.2-5.2,4.3-5.3c0.1-0.2,0.1-0.5-0.1-0.8c-0.2-0.2-0.5-0.3-0.8-0.2c-0.1,0-2.9,1.2-5.7,3.5c0-0.1,0.1-0.2,0.2-0.3
				 M-135,53.8 M-124.9,60.6c-1.1,0.4-2.4,1-4.1,1.3c-0.5,0.1-1,0.2-1.5,0.2h-1.6c0-0.1,0-0.1,0-0.2c1-0.4,2-0.8,3.1-1
				c0.1,0,0.1,0,0.3,0C-127.6,60.7-126.2,60.5-124.9,60.6z M-125.2,55.4c-0.8,1-1.9,2.3-3.2,3.4c-0.3,0.2-0.5,0.5-0.9,0.8h-0.1
				c-0.5,0.1-1,0.2-1.4,0.4c0.5-0.7,1.2-1.3,1.9-1.9C-127.7,56.9-126.3,56.1-125.2,55.4z M-128.9,51c-0.2,1.2-0.7,2.9-1.3,4.5
				c-0.4,1-0.9,2-1.4,2.7c0.1-0.8,0.1-1.5,0.2-2.3v-0.1c0.1-0.2,0.2-0.4,0.3-0.8C-130.5,53.5-129.6,52.1-128.9,51z M-132.8,54.7
				c0,0.3,0,0.7,0,1l0,0l0,0c-0.1,2-0.3,3.8-0.7,5.2h-0.1l0,0l0,0c0-0.1,0-0.3-0.1-0.5c0-0.1,0-0.2,0-0.3c0-0.2,0-0.5-0.1-0.9
				c0-0.1,0-0.1,0-0.2c0-0.7-0.1-1.5-0.1-2.3c0.1-0.5,0.1-1.2,0.1-2 M-135.7,55.8l0.1,0.2c0.1,0.3,0.3,0.5,0.4,0.9
				c0,0.1,0,0.1,0,0.2c0,0.5,0,1,0,1.4c0,0.1,0,0.1,0,0.2c-0.4-0.8-1-1.5-1.4-2.5c-0.8-1.6-1.3-3.3-1.6-4.6
				C-137.4,52.8-136.5,54.2-135.7,55.8z M-142,55.6c1.1,0.5,2.4,1.3,3.6,2.3c0.8,0.7,1.5,1.4,2.3,2.2c-0.5-0.2-1.1-0.4-1.8-0.7
				c-0.3-0.2-0.8-0.5-1.1-0.9C-140.2,57.7-141.3,56.6-142,55.6z M-138.8,61.8c-1.4-0.4-2.7-1-3.7-1.5c1.1,0,2.5,0.2,4.1,0.5
				c1.1,0.3,2.1,0.8,3,1.1c-0.1,0.1-0.2,0.1-0.3,0.2h-1.1C-137.6,62-138.1,61.9-138.8,61.8z M-108.1,42.5c-1.2-0.3-2.3-0.9-3.4-1.4
				c-0.9-0.4-1.9-1.1-2.7-1.8c-0.5-0.4-1.1-0.9-1.5-1.2c0.2,0.1,0.5,0.1,0.9,0.2c1.5,0.4,2.9,1,4.1,1.5c0,0,0.1,0.1,0.2,0.1
				c1,0.5,2,1.2,3,1.9c0.3,0.2,0.7,0.5,0.9,0.8c0,0.1,0,0.1,0,0.1C-107.2,42.9-107.7,42.8-108.1,42.5z M-114,37.3v-1.6
				c0.3,0.7,0.9,1.4,1.3,2.1C-113.2,37.5-113.6,37.4-114,37.3z M-118.2,34.7h0.7c0.3,0,0.7-0.3,0.7-0.7c0-0.3-0.3-0.7-0.7-0.7h-0.5
				l0.1-4h0.7c0.3,0,0.7-0.3,0.7-0.7c0-0.3-0.3-0.7-0.7-0.7h-0.7v-1.2c0.2,0,0.3,0,0.5,0h0.8c0.5,0,1-0.1,1.2-0.1l0.1,3.6
				c-0.1,0-0.2,0-0.3,0.1c-0.2,0.2-0.3,0.4-0.2,0.8c0,0,0.2,0.5,0.5,1.4l0.1,4.2c-1.3-0.3-2.3-0.4-2.3-0.4c-0.2,0-0.4,0.1-0.5,0.2
				L-118.2,34.7z M-97.2,30.9c-0.5,1.4-1.5,3.4-2.9,5.3c-0.8,1.1-1.6,2.2-2.6,3.2c0.3-1,0.7-2.1,1-3.1c0.2-0.2,0.3-0.5,0.5-0.8
				C-99.9,33.4-98.3,31.9-97.2,30.9z M-101.7,27.9c-0.1,1.8-0.3,4.1-1,6.6c-0.1,0.4-0.2,0.8-0.3,1.2l0,0l0,0c-0.4,1.5-0.9,3-1.4,4.3
				c-0.2,0.5-0.4,1.1-0.7,1.5l0,0l-0.1,0.1l0,0c0,0,0,0-0.1,0l0,0c0,0,0,0,0-0.1v-0.1c0-0.2,0-0.3,0-0.5c0-0.1,0-0.2,0-0.4
				c0-0.2,0.1-0.4,0.1-0.8c0-0.1,0-0.3,0.1-0.4c0-0.2,0.1-0.5,0.1-0.8c0-0.2,0.1-0.3,0.1-0.5c0.1-0.3,0.1-0.8,0.2-1.1
				c0-0.1,0-0.2,0.1-0.3c0.2-0.8,0.3-1.5,0.5-2.4C-103.4,31.7-102.5,29.5-101.7,27.9z M-106.3,35.1c0.1,0.4,0.2,0.9,0.3,1.3
				c-0.1,0.4-0.2,0.9-0.3,1.3c0,0.1,0,0.2,0,0.3c-0.1,0.3-0.1,0.7-0.2,1c-0.4-1.2-0.9-2.4-1.1-3.6c-0.5-2.4-0.8-4.7-0.8-6.3
				C-107.8,30.6-106.9,32.7-106.3,35.1z M-109.9,36.8c0.9,1.1,1.6,2.3,2.3,3.6c-0.8-0.5-1.5-1.1-2.3-1.4c-0.3-0.4-0.8-0.8-1.1-1.3
				c-1.4-1.8-2.3-3.5-2.9-4.7C-112.7,33.7-111.3,35.2-109.9,36.8z M-102.2,21.3c-1.6,1-4.4,2.3-7.6,3.1c-1.6,0.4-3.4,0.7-5.3,0.9
				l0,0l0,0c0,0,0,0,0-0.1l0,0c0,0,0,0,0-0.1c-0.1-0.1-0.2-0.2-0.4-0.2c0,0,0,0-0.1,0l0,0c-0.1,0-0.1-0.1-0.2-0.1l0,0l0,0l0,0l0,0
				l0,0c0,0,0,0,0.1,0c0,0,0,0,0.1,0l0,0l0.1-0.1c0,0,0,0,0.1-0.1l0,0l0,0c0-0.1,0.1-0.1,0.1-0.2v-0.1c1.8-0.8,3.4-1.4,5.1-1.8
				c0.1,0,0.3-0.1,0.4-0.1C-106.8,21.4-103.9,21.3-102.2,21.3z M-110.4,18c2.6-2.5,5.4-4.3,7.3-5.3c-1.1,1.8-3.1,4.4-5.7,6.9
				c-0.4,0.4-0.9,0.9-1.4,1.2c-0.1,0-0.2,0-0.3,0.1c-0.5,0.1-1.1,0.3-1.5,0.4c-0.1,0-0.3,0.1-0.4,0.1c-0.3,0.1-0.8,0.2-1.1,0.4
				c-0.2,0-0.2,0-0.3,0.1C-112.9,20.6-111.7,19.2-110.4,18z M-113.9,13.7c1.2-3.4,3-6.2,4.2-7.9c-0.2,2.1-0.8,5.3-2.1,8.7
				c-0.9,2.3-1.9,4.3-2.9,5.8c0-0.1,0-0.2,0-0.3c0-0.2,0-0.4,0.1-0.7c0-0.1,0-0.3,0-0.4c0-0.2,0-0.5,0-0.8c0-0.1,0-0.3,0-0.4
				c0-0.3,0-0.5,0-0.9c0-0.1,0-0.2,0-0.4c0-0.3,0-0.8,0-1.1c0-0.1,0-0.2,0-0.2c0.1-0.3,0.2-0.5,0.3-0.9L-113.9,13.7z M-116.9,3.4
				c0.5,2.3,1.1,5.8,1.1,9.8c0,0.5,0,1.1,0,1.6c0,0.4,0,0.8,0,1.2c0,0.1,0,0.1,0,0.2c0,0.3,0,0.7,0,1c0,0.1,0,0.2,0,0.3
				c0,0.2,0,0.5,0,0.8c0,0.1,0,0.2,0,0.3c0,0.2,0,0.4,0,0.7c0,0.1,0,0.3,0,0.4c0,0.2,0,0.4-0.1,0.5c0,0.1,0,0.3,0,0.4
				c0,0.2,0,0.3-0.1,0.5c0,0.1,0,0.2-0.1,0.4c0,0.1,0,0.3-0.1,0.4c0,0.1,0,0.2-0.1,0.3c0,0.1,0,0.2-0.1,0.3l-0.1,0.2l0,0
				c0,0.1-0.1,0.1-0.1,0.2l0,0l0,0h-0.1c-0.1,0-0.1,0-0.2,0l-0.3-0.2l0,0c-0.2-1.1-0.3-2.4-0.4-4c-0.1-0.9-0.1-1.6-0.1-2.6
				c0-1-0.1-2.1-0.1-3.2C-118,9.2-117.4,5.7-116.9,3.4z M-125.6,7.3c1.4,1.6,3.6,4.4,5.4,7.7c0.3,0.5,0.5,1.1,0.9,1.6
				c0,0.2,0,0.3,0,0.5c0,0.5,0,1,0.1,1.5c0,0.2,0,0.4,0.1,0.8c0,0.4,0.1,0.9,0.1,1.2c0,0.1,0,0.2,0,0.2c-1.2-1.6-2.3-3.3-3.1-4.9
				C-123.9,12.6-125,9.5-125.6,7.3z M-131.4,14.3c1.8,0.8,4.5,2.1,7.3,4.1c2,1.5,3.6,3.2,4.8,4.5c-1.4-0.7-2.9-1.1-4.3-1.4
				c-0.5-0.4-1.2-0.8-1.9-1.3C-128.2,18.1-130.2,15.8-131.4,14.3z M-124.9,24.8c-3.1-0.8-5.6-2-7.3-2.9c0.4,0,0.9,0,1.4,0
				c2.2,0,4.3,0.2,6.4,0.8h0.1c0,0,0,0,0.1,0c1.6,0.4,3.4,1,5.2,1.9c-0.1,0.2-0.1,0.4,0,0.7l-0.4,0v0.2
				C-121.4,25.4-123.3,25.2-124.9,24.8z M-118.8,62.1l0.2-8.7h1.8c0.3,0,0.7-0.3,0.7-0.7s-0.3-0.7-0.7-0.7h-1.6l0.1-7h1.3
				c0.3,0,0.7-0.3,0.7-0.7s-0.3-0.7-0.7-0.7h-1.3l0.1-6.2c0.1,0.1,1.2,1.3,3,2.7l0.2,14.3l0,0l0,0l0.1,7.5L-118.8,62.1L-118.8,62.1z
				 M-113.9,41.3c0.7,0.4,1.2,0.8,1.9,1.1c0.9,0.4,1.9,0.9,2.9,1.2l-4.5,8.2L-113.9,41.3z M-100.2,43.8c-1.2,0-2.4-0.1-3.7-0.3
				c0-0.1-0.1-0.2-0.1-0.3s0-0.2,0-0.3c0.1,0,0.2,0,0.4-0.1c1.1-0.2,2.3-0.2,3.4-0.2c0.1,0,0.2,0,0.4,0c2,0,3.7,0.3,5.1,0.7
				C-96.1,43.4-98.1,43.9-100.2,43.8z M-98.8,40.5c-0.3,0.2-0.8,0.4-1.1,0.5l-0.1,0.1c-0.1,0-0.1,0-0.2,0c-0.8,0-1.4,0-2.2,0.1
				c1-0.8,2-1.4,3-2c2.1-1.1,4.1-1.9,5.6-2.3C-95,37.9-96.7,39.2-98.8,40.5z"/>
			<path d="M-93.5,62.1h-6.7c-0.3,0-0.7,0.3-0.7,0.7s0.3,0.7,0.7,0.7h6.7c0.3,0,0.7-0.3,0.7-0.7S-93.1,62.1-93.5,62.1z"/>
			<path d="M-102.9,62.1h-3.3c-0.3,0-0.7,0.3-0.7,0.7s0.3,0.7,0.7,0.7h3.3c0.3,0,0.7-0.3,0.7-0.7S-102.6,62.1-102.9,62.1z"/>
		</g>
	</g>
</g>
<g>
	<defs>
		<rect id="SVGID_00000138564618848208243740000002495747525893376433_" x="-209.9" y="0" width="50" height="50"/>
	</defs>
	<clipPath id="SVGID_00000017490087622994045660000007349607838533656707_">
		<use xlink:href="#SVGID_00000138564618848208243740000002495747525893376433_"  style="overflow:visible;"/>
	</clipPath>
	<g style="clip-path:url(#SVGID_00000017490087622994045660000007349607838533656707_);">
		<path d="M-193,14.8c-0.2-0.3-0.5-0.4-0.8-0.4c-0.3,0.1-0.5,0.3-0.6,0.6c-0.1,0.4,0.2,0.8,0.6,0.9c0.4,0.1,0.8-0.2,0.9-0.6
			C-192.8,15.1-192.9,14.9-193,14.8L-193,14.8z"/>
		<path d="M-197.5,15.4c0,0.4,0.4,0.7,0.9,0.7c0.4-0.1,0.7-0.5,0.7-0.9c0-0.4-0.4-0.7-0.9-0.7C-197.2,14.5-197.5,14.9-197.5,15.4
			L-197.5,15.4z"/>
		<path d="M-193.4,11.9c-0.3,0.3-0.3,0.8,0,1.1c0.3,0.3,0.8,0.3,1.1,0l0,0c0.3-0.3,0.3-0.8,0-1.1c0,0-0.1-0.1-0.2-0.1
			C-192.7,11.6-193.1,11.7-193.4,11.9z"/>
		<path d="M-198.9,9.8c-0.1,0.4,0.1,0.9,0.5,1c0.4,0.1,0.9-0.1,1-0.5c0.1-0.4-0.1-0.9-0.5-1C-198.3,9.2-198.8,9.4-198.9,9.8z"/>
		<path d="M-196.1,10.8c-0.2,0.4,0,0.9,0.4,1l0,0c0.4,0.2,0.9,0,1.1-0.4c0.2-0.4,0-0.9-0.4-1.1l0,0
			C-195.5,10.2-195.9,10.3-196.1,10.8C-196.1,10.7-196.1,10.8-196.1,10.8z"/>
		<path d="M-177.5,11.7c-0.3,0.1-0.5,0.4-0.5,0.7c0,0.4,0.4,0.8,0.8,0.8c0.4,0,0.8-0.4,0.8-0.8c0-0.4-0.4-0.8-0.8-0.8
			c0,0-0.1,0-0.2,0C-177.4,11.7-177.4,11.7-177.5,11.7z"/>
		<path d="M-171.9,10.8c0.4,0,0.8-0.4,0.8-0.8c0-0.1,0-0.1,0-0.2c-0.1-0.4-0.5-0.7-1-0.5c-0.4,0.1-0.7,0.5-0.5,1
			C-172.5,10.6-172.2,10.8-171.9,10.8z"/>
		<path d="M-175.3,11.4c0.2,0.4,0.6,0.5,1,0.4c0.4-0.2,0.6-0.6,0.4-1s-0.6-0.6-1-0.4C-175.3,10.5-175.5,11-175.3,11.4L-175.3,11.4z"
			/>
		<path d="M-166.2,10.1c0.4,0,0.8-0.3,0.9-0.7c0-0.4-0.3-0.8-0.7-0.9c-0.4,0-0.8,0.3-0.9,0.7l0,0C-166.9,9.7-166.6,10.1-166.2,10.1z
			"/>
		<path d="M-163.6,10.8c0.4,0.2,0.9,0,1-0.4c0.2-0.4,0-0.9-0.4-1c-0.4-0.2-0.9,0-1,0.4C-164.2,10.2-164,10.6-163.6,10.8z"/>
		<path d="M-169,10.2c0.4,0,0.8-0.4,0.8-0.8c0-0.4-0.4-0.8-0.8-0.8c0,0-0.1,0-0.1,0c-0.4,0-0.7,0.4-0.7,0.9
			C-169.8,9.9-169.4,10.2-169,10.2z"/>
		<path d="M-161.6,11.7c0.1,0.4,0.5,0.7,0.9,0.6c0.4-0.1,0.6-0.4,0.6-0.8c0-0.4-0.4-0.8-0.8-0.8c-0.2,0-0.4,0.1-0.5,0.2
			C-161.5,11.2-161.6,11.4-161.6,11.7z"/>
		<path d="M-178,10.1c0.2,0,0.4-0.1,0.5-0.2c0.3-0.3,0.3-0.8,0-1.1s-0.8-0.3-1.1,0c-0.3,0.3-0.3,0.8,0,1.1
			C-178.4,10-178.2,10.1-178,10.1z"/>
		<path d="M-168.4,2.9c0.1,0,0.2,0,0.2,0c0.4-0.1,0.7-0.5,0.6-1s-0.5-0.7-1-0.6c-0.4,0.1-0.7,0.5-0.6,1
			C-169.1,2.7-168.8,2.9-168.4,2.9z"/>
		<path d="M-171.2,4.1c0.1,0,0.2,0,0.4-0.1c0.4-0.2,0.5-0.7,0.4-1.1s-0.7-0.5-1.1-0.4s-0.5,0.7-0.4,1.1
			C-171.8,3.9-171.5,4.1-171.2,4.1L-171.2,4.1z"/>
		<path d="M-173.8,5.7c0.4,0,0.8-0.4,0.8-0.8s-0.4-0.8-0.8-0.8c-0.2,0-0.4,0-0.5,0.2c-0.4,0.3-0.4,0.7-0.2,1.1
			C-174.3,5.6-174,5.7-173.8,5.7z"/>
		<path d="M-176.1,7.7c0.4,0,0.8-0.4,0.8-0.8s-0.4-0.8-0.8-0.8c-0.4,0-0.8,0.4-0.8,0.8c0,0.2,0.1,0.4,0.2,0.5
			C-176.5,7.6-176.3,7.7-176.1,7.7z"/>
		<path d="M-165.4,2.4C-165.4,2.4-165.4,2.4-165.4,2.4c0.5,0,0.8-0.4,0.8-0.9c0-0.4-0.4-0.7-0.9-0.7c-0.4,0-0.7,0.4-0.7,0.9
			C-166.1,2-165.8,2.4-165.4,2.4z"/>
		<path d="M-162.4,2.3c0.4,0,0.8-0.4,0.8-0.8s-0.4-0.8-0.8-0.8c-0.4,0-0.8,0.4-0.8,0.8S-162.8,2.3-162.4,2.3z"/>
		<path d="M-192,10.1c0.2,0,0.4-0.1,0.5-0.2c0.3-0.3,0.3-0.8,0-1.1c-0.3-0.3-0.8-0.3-1.1,0c-0.3,0.3-0.3,0.8,0,1.1
			C-192.4,10-192.2,10.1-192,10.1z"/>
		<path d="M-196.7,5.5c0.4,0.3,0.8,0.2,1.1-0.2c0.3-0.4,0.2-0.8-0.2-1.1l0,0c-0.4-0.3-0.8-0.2-1.1,0.2C-197.1,4.8-197,5.3-196.7,5.5
			L-196.7,5.5z"/>
		<path d="M-199.1,4c0.1,0,0.2,0.1,0.4,0.1c0.4,0,0.8-0.4,0.8-0.8s-0.4-0.8-0.8-0.8c-0.3,0-0.5,0.2-0.7,0.4
			C-199.7,3.3-199.5,3.8-199.1,4z"/>
		<path d="M-193.9,7.7c0.4,0,0.8-0.4,0.8-0.8s-0.4-0.8-0.8-0.8c-0.2,0-0.4,0.1-0.5,0.2c-0.3,0.3-0.3,0.8,0,1.1
			C-194.4,7.6-194.1,7.7-193.9,7.7L-193.9,7.7z"/>
		<path d="M-175.7,14.8c-0.2-0.4-0.7-0.5-1.1-0.2c-0.4,0.2-0.5,0.7-0.2,1.1c0,0,0.1,0.1,0.1,0.1c0.2,0.2,0.4,0.2,0.7,0.2
			c0.4-0.1,0.7-0.5,0.6-0.9C-175.7,14.9-175.7,14.9-175.7,14.8z"/>
		<path d="M-165.5,18.5c-0.3,0.3-0.4,0.8,0,1.1l0,0c0.3,0.3,0.8,0.3,1.1,0s0.4-0.8,0-1.1C-164.7,18.2-165.2,18.1-165.5,18.5
			L-165.5,18.5z"/>
		<path d="M-171,15.6c-0.1,0.4,0.1,0.9,0.5,1c0.4,0.1,0.9-0.1,1-0.5c0.1-0.4-0.1-0.9-0.5-1l0,0C-170.4,15-170.9,15.2-171,15.6
			L-171,15.6z"/>
		<path d="M-162.6,21.3c-0.2-0.4-0.6-0.5-1-0.4s-0.5,0.6-0.4,1l0,0c0.2,0.4,0.7,0.5,1.1,0.4C-162.5,22.1-162.4,21.7-162.6,21.3z"/>
		<path d="M-168.1,16.7c-0.2,0.4-0.1,0.9,0.3,1.1l0,0c0.4,0.2,0.9,0.1,1.1-0.3c0.2-0.4,0.1-0.9-0.3-1.1
			C-167.4,16.2-167.9,16.3-168.1,16.7L-168.1,16.7L-168.1,16.7z"/>
		<path d="M-173.2,14.5c-0.5,0-0.8,0.3-0.9,0.7c0,0.4,0.3,0.8,0.7,0.9h0c0.4,0,0.8-0.4,0.8-0.8C-172.5,14.9-172.8,14.5-173.2,14.5
			L-173.2,14.5z"/>
		<path d="M-163.1,24.9c0.1,0.3,0.4,0.5,0.7,0.5c0.4,0,0.8-0.4,0.8-0.8c0-0.4-0.4-0.8-0.8-0.8c0,0-0.1,0-0.2,0
			c-0.4,0.1-0.6,0.4-0.6,0.8C-163.1,24.7-163.1,24.7-163.1,24.9z"/>
		<path d="M-188.7,29.5c-0.1,0.1-0.1,0.3-0.2,0.4c0.4,0.4,0.7,0.9,1.1,1.4c1.1-2.6,2.5-5.1,4.1-7.4c0.3-0.4,0.2-0.8-0.1-1.1
			c-0.3-0.2-0.7-0.2-1,0c-2,1.8-3.7,3.7-5.3,5.8c0.4,0.4,0.7,0.8,1.1,1.2C-188.9,29.7-188.8,29.6-188.7,29.5z"/>
		<path d="M-160.8,49.2h-2.9c-0.1-2.4,0-10.5,3.6-15.2c0.3-0.4,0.2-0.8-0.2-1.1c-0.3-0.2-0.6-0.2-0.9,0c-1.6,1.2-2.9,2.5-4.1,4.1
			c0.9-2.9,2-5.8,3.3-8.6c0.2-0.4,0-0.9-0.4-1.1c-0.3-0.1-0.6-0.1-0.9,0.1c-6.2,5.5-8.2,11.9-8.7,16.4c-1.2-1.6-2.6-3.4-2.7-3.5
			c-0.3-0.3-0.8-0.4-1.1-0.1c-0.3,0.2-0.4,0.6-0.2,0.9c0.5,1.1,0.9,5.2,1.1,7.9h-2.3c-0.1-2.5,0-10.5,3.4-15.2
			c0.3-0.4,0.2-0.8-0.2-1.1c-0.3-0.2-0.7-0.2-0.9,0c-1.9,1.6-3.5,3.5-4.6,5.6c1.2-5.3,3.4-10.3,6.5-14.7c0.3-0.4,0.2-0.8-0.1-1.1
			c-0.3-0.2-0.7-0.2-1,0c-4.8,4.4-8.4,9.9-10.3,16c-3.4-6.5-9.4-11.8-9.6-12c-0.3-0.3-0.8-0.2-1.1,0.1c-0.3,0.3-0.2,0.7,0,1
			c3.1,3.5,8.4,17.5,9.2,19.8c0,0.7,0,1.2,0,1.6h-2v-2.4c-0.4-1-0.8-2.1-1.2-3.2c-0.2,1.8-0.2,3.7,0,5.5h-1.6
			c-0.2-2.9-0.1-5.7,0.4-8.5c-0.4-0.9-0.7-1.8-1.1-2.6c-0.8,3.7-1.1,7.4-0.9,11.1h-2.7c0-4.5,0.9-8.9,2.7-13.1
			c-0.3-0.7-0.6-1.3-0.9-1.9c-2.3,4.6-3.4,9.8-3.3,15h-1.6c0-2.4,0.2-4.8,0.6-7.1c-0.4-3.1-1.1-6.1-2.1-9.1c1.2,1.6,2.2,3.4,3.1,5.2
			c0.2-0.7,0.4-1.3,0.7-2c-1.6-2.9-3.5-5.5-5.7-7.9c-0.3-0.3-0.8-0.3-1.1,0c-0.2,0.2-0.3,0.6-0.2,0.9c3.8,8.6,4.2,17.5,4.2,20h-1.6
			c0.1-6.2-2.6-12.2-7.3-16.2c-0.4-0.3-0.8-0.2-1.1,0.2c-0.2,0.3-0.2,0.7,0,0.9c2,2.8,2.9,6.7,3.2,9.9c-1.4-1.5-3.1-3-3.2-3.2
			c-0.3-0.3-0.8-0.3-1.1,0c-0.2,0.3-0.3,0.6-0.1,0.9c0.6,1.1,1.6,5.1,2.1,7.4h-1.4c-0.4,0-0.8,0.4-0.8,0.8c0,0.4,0.4,0.8,0.8,0.8
			h48.4c0.4,0,0.8-0.4,0.8-0.8C-160,49.5-160.4,49.2-160.8,49.2L-160.8,49.2z M-165.3,49.2h-2.5c0-4.2,1.4-8.4,4.1-11.6
			C-165.4,42.2-165.4,47.2-165.3,49.2L-165.3,49.2z M-165,31.5c-1.6,4.2-2.9,8.4-3.9,12.8c0,0,0,0.1,0,0.1c-0.4,1.6-0.5,3.2-0.5,4.8
			h-1C-171.1,42.8-169.2,36.4-165,31.5L-165,31.5z M-173.8,44c0.6,0.8,1.2,1.7,1.7,2.6c0,0.9,0,1.8,0.2,2.6h-1.4
			C-173.4,48.3-173.6,46-173.8,44z M-177.5,38.3c-1.3,4.4-1.3,9.1-1.3,10.9h-1.6c-0.1-1.1-0.1-2.2-0.1-3.3
			C-180,43.2-179.1,40.6-177.5,38.3z M-190.7,32.6c2,2.3,4,5.2,5.4,8.2c0,0,0,0.1,0.1,0.1c-0.3,1.1-0.5,2.1-0.6,3
			C-187,40.9-188.8,36.4-190.7,32.6z M-178.2,29.5c-2.4,5.1-3.7,10.6-3.9,16.2c-0.2,1.1-0.2,2.3-0.2,3.5h-2.3
			C-184.7,46.7-184.5,38.1-178.2,29.5z M-201.8,49.2h-1.9c0.1-1.9,0-6.6-1.3-11C-202.8,41.5-201.7,45.3-201.8,49.2z M-207.4,44.2
			c0.7,0.7,1.4,1.5,2.1,2.3c0,1.1,0,2.1,0,2.7h-0.9C-206.4,48.1-206.9,46.1-207.4,44.2z"/>
		<path d="M-188.1,17.9h1.2c0.4,0,0.8-0.4,0.8-0.8v-6.6h2.3v6.6c0,0.4,0.4,0.8,0.8,0.8h1.2v11.4c0.5-0.7,1-1.5,1.6-2.2v-10
			c0-0.4-0.4-0.8-0.8-0.8h-1.2v-5.9h1.2c0.4,0,0.8-0.4,0.8-0.8c0-2.6-2.1-4.7-4.7-4.7s-4.7,2.1-4.7,4.7c0,0.4,0.4,0.8,0.8,0.8h1.2
			v5.9h-1.2c-0.4,0-0.8,0.4-0.8,0.8v8.5c0.5-0.6,1-1.2,1.6-1.8V17.9z M-185,6.6c1.4,0,2.7,1,3,2.3h-6C-187.7,7.5-186.4,6.6-185,6.6z
			"/>
	</g>
</g>
<path d="M4.2,9.2l2.7,2.7l4.8-0.5l0.5-4.8L9.5,3.9L4.2,9.2z M10,9.7L7.6,9.9L6.8,9.2l2.7-2.7l0.7,0.7L10,9.7z"/>
<path d="M39.5,27.3c-1.1-1.1-2.9-1.1-4,0l-2,2l-4.9-5l9.1-9.1l6.1,0.5l4.3-4.3c1.1-1.1,1.1-2.9,0-4c0,0,0,0,0,0l-6.6-6.6
	c-1.1-1.1-2.9-1.1-4,0c0,0,0,0,0,0l-4.3,4.3l0.5,6.1l-9.1,9.1l-9.1-9.1L16,5.1l-4.3-4.3c-1.1-1.1-2.9-1.1-4,0c0,0,0,0,0,0L1.1,7.4
	c-1.1,1.1-1.1,2.9,0,4c0,0,0,0,0,0l4.3,4.3l6.1-0.5l9.1,9.1l-4.9,4.9l-2-2c-1.1-1.1-2.9-1.1-4,0l-9.6,9.6l2.2,9.7l9.7,2.2l9.6-9.6
	c1.1-1.1,1.1-2.9,0-4c0,0,0,0,0,0l-2-2l4.9-4.9l5,4.9l-2,2c-1.1,1.1-1.1,2.9,0,4l9.9,9.9c0.7,0.7,1.9,0.7,2.6,0c0,0,0,0,0,0l9.3-9.3
	c0.7-0.7,0.7-1.9,0-2.6L39.5,27.3z M21.7,28.6l-1.3-1.3l12.6-12.6l1.3,1.3L21.7,28.6z M38.9,2.1c0.4-0.4,1-0.4,1.3,0c0,0,0,0,0,0
	l6.6,6.6c0.4,0.4,0.4,1,0,1.3c0,0,0,0,0,0l-3.7,3.7L37,13.3l-1.4,1.4l-1.3-1.3l1.4-1.4l-0.5-6.2L38.9,2.1z M6.1,13.8l-3.7-3.7
	c-0.4-0.4-0.4-1,0-1.3c0,0,0,0,0,0l6.6-6.6c0.4-0.4,1-0.4,1.3,0c0,0,0,0,0,0l3.7,3.7L13.6,12l1.4,1.4l-1.3,1.3l-1.4-1.4L6.1,13.8z
	 M15,16.1l1.3-1.3l7,7L22,23L15,16.1z M11.5,46.7L4,45l-1.7-7.5l2.3-2.3L7.1,42l7.5,1.7L11.5,46.7z M20.6,37.2
	c0,0.2-0.1,0.5-0.3,0.7l-4.2,4.2l-7.7-1.7L6,33.7l5.1-5.1c0.4-0.4,1-0.4,1.3,0l2,2L12,33l0.7,2l-3.6,3.6l1.3,1.3l4.4-4.4l-0.7-2
	l1.6-1.6l4.6,4.6C20.5,36.7,20.6,37,20.6,37.2z M17,30.6l2-2l1.3,1.3l-2,2L17,30.6z M27.3,25.7l1.6,1.6l-1.3,1.3L26,27L27.3,25.7z
	 M28.9,29.9l1.3-1.3l2,2l-1.3,1.3L28.9,29.9z M28.7,37.2c0-0.2,0.1-0.5,0.3-0.7l7.9-7.9c0.4-0.4,1-0.4,1.3,0l1.6,1.6L37,31.1
	l-5.6,5.6l-0.9,2.7l-1.6-1.6C28.8,37.7,28.7,37.5,28.7,37.2L28.7,37.2z M46.8,39.9l-2.7-2.6l-1.3,1.3l2.7,2.6l-1.3,1.3l-2.7-2.6
	l-1.3,1.3l2.7,2.6l-1.3,1.3l-2.6-2.7l-1.3,1.3l2.6,2.7l-1.3,1.3L32,41l1.1-3.2l1.8-1.8l4,4l1.3-1.3l-4-4l1.8-1.8l3.2-1.1l6.9,6.9
	L46.8,39.9z"/>
<path d="M42.1,11.9l2.7-2.7l-5.3-5.3l-2.7,2.7l0.5,4.8L42.1,11.9z M39.5,6.5l2.7,2.7l-0.7,0.7L39,9.7l-0.3-2.4L39.5,6.5z"/>
</svg>
