<svg id="Layer_1" data-name="Layer 1" xmlns="http://www.w3.org/2000/svg" viewBox="0 0 50 50"><g id="Layer_1-2" data-name="Layer 1"><path d="M21.57,24a.84.84,0,0,0,.77-.78.75.75,0,0,0-.77-.78H10.14a.84.84,0,0,0-.78.78v8.83a.75.75,0,0,0,.78.78h13.5a.84.84,0,0,0,.78-.78.75.75,0,0,0-.78-.78H10.92V24.16H21.57Z"/><path d="M23,20H18.06V12.86h7a.84.84,0,0,0,.78-.78.75.75,0,0,0-.78-.78H17.15a.84.84,0,0,0-.78.78v8.7a.75.75,0,0,0,.78.78h5.71a.84.84,0,0,0,.78-.78A.65.65,0,0,0,23,20Z"/><path d="M10.14,10.52H26a.84.84,0,0,0,.78-.78A.75.75,0,0,0,26,9H10.92V1.69H34.81v6.1a.75.75,0,0,0,.78.78.84.84,0,0,0,.78-.78v-7A.84.84,0,0,0,35.59,0H10.14a.84.84,0,0,0-.78.78V9.61a.73.73,0,0,0,.78.91Z"/><path d="M15.59,20.78V12a.7.7,0,0,0-.68-.78H.68A.79.79,0,0,0,0,12v8.83a.7.7,0,0,0,.68.78H14.91c.46.13.68-.26.68-.78ZM14.24,20H1.36V12.86H14.24Z"/><path d="M30.4,39.61h-.91a.84.84,0,0,0-.78.78.68.68,0,0,0,.26.52,1,1,0,0,0,.52.26h.91a.84.84,0,0,0,.78-.78.75.75,0,0,0-.78-.78Z"/><path d="M30.4,44.55h-.91a.84.84,0,0,0-.78.77.68.68,0,0,0,.26.52,1,1,0,0,0,.52.26h.91a.84.84,0,0,0,.78-.78.75.75,0,0,0-.78-.77Z"/><path d="M31.44,50h0a3.68,3.68,0,0,1-3.51-3.9v-9a.84.84,0,0,1,.78-.78H34a.84.84,0,0,1,.78.78v9C34.81,48.18,33.25,50,31.44,50Zm-2-12.08V46.1a2,2,0,0,0,1.82,2.21h.13a2.05,2.05,0,0,0,1.81-2.21V37.92Z"/><path d="M36.24,30.13H26.11A2.32,2.32,0,0,1,24,28.83a3.3,3.3,0,0,1-.26-2.47l4.55-14.8A2.41,2.41,0,0,1,33,11.3l5.59,14.8a3,3,0,0,1-.13,2.6A2.55,2.55,0,0,1,36.24,30.13Zm-5.58-19c-.13,0-.65,0-.78.78l-4.55,14.8a1.22,1.22,0,0,0,.13,1.17c.13.13.39.52.65.52H36.24a.88.88,0,0,0,.78-.52,1.49,1.49,0,0,0,.13-1.3l-5.58-14.8C31.44,11.69,31.18,11.17,30.66,11.17Z"/><path d="M30.53,29.74v6.62a.91.91,0,1,0,1.81,0V29.74a.89.89,0,0,0-.9-.91,1.1,1.1,0,0,0-.91.91Z"/><path d="M48.77,12.86V20H39a.78.78,0,0,0-.67.78.7.7,0,0,0,.67.78H49.33a.78.78,0,0,0,.67-.78V12a.7.7,0,0,0-.67-.78H36.39a.79.79,0,0,0-.67.78.7.7,0,0,0,.67.78l12.38.13Z"/><path d="M38.84,31.17a.84.84,0,0,0-.78.78.75.75,0,0,0,.78.78h6a.84.84,0,0,0,.78-.78V23.12a.75.75,0,0,0-.78-.78H40.92a.84.84,0,0,0-.78.78.75.75,0,0,0,.78.78h3v7.27Z"/><path d="M28.58,2.6H20.27a.87.87,0,0,0-.91.78.87.87,0,0,0,.91.78h8.31a.87.87,0,0,0,.91-.78.87.87,0,0,0-.91-.78Z"/><path d="M32.6,2.73h-.9a.75.75,0,0,0-.78.78.68.68,0,0,0,.26.52,1,1,0,0,0,.52.26h.9a.75.75,0,0,0,.78-.78.75.75,0,0,0-.78-.78Z"/></g></svg>