<?xml version="1.0" encoding="utf-8"?>
<!-- Generator: Adobe Illustrator 25.4.1, SVG Export Plug-In . SVG Version: 6.00 Build 0)  -->
<svg version="1.1" xmlns="http://www.w3.org/2000/svg" xmlns:xlink="http://www.w3.org/1999/xlink" x="0px" y="0px"
	 viewBox="0 0 42.1 38.5" style="enable-background:new 0 0 42.1 38.5;" xml:space="preserve">
<g id="Layer_2">
</g>
<g id="Layer_1">
	<g>
		<g>
			<path d="M18.4,18.5c0.3,0,0.6-0.3,0.6-0.6c0-0.4-0.3-0.6-0.6-0.6H9.6c-0.3,0-0.6,0.3-0.6,0.6v6.8c0,0.4,0.3,0.6,0.6,0.6H20
				c0.3,0,0.6-0.3,0.6-0.6c0-0.4-0.3-0.6-0.6-0.6h-9.8v-5.5h8.2V18.5z"/>
			<path d="M19.5,15.4h-3.8V9.9h5.4c0.3,0,0.6-0.3,0.6-0.6c0-0.4-0.3-0.6-0.6-0.6H15c-0.3,0-0.6,0.3-0.6,0.6V16
				c0,0.4,0.3,0.6,0.6,0.6h4.4c0.3,0,0.6-0.3,0.6-0.6C20.1,15.7,19.8,15.4,19.5,15.4L19.5,15.4z"/>
			<path d="M9.6,8.1h12.2c0.3,0,0.6-0.3,0.6-0.6c0-0.4-0.3-0.6-0.6-0.6H10.2V1.3h18.4V6c0,0.4,0.3,0.6,0.6,0.6s0.6-0.3,0.6-0.6V0.6
				c0-0.3-0.3-0.6-0.6-0.6H9.6C9.3,0,9,0.3,9,0.6v6.8C8.9,7.8,9.2,8.1,9.6,8.1L9.6,8.1z"/>
			<path d="M13.8,16V9.2c0-0.4-0.3-0.6-0.6-0.6H0.6C0.3,8.6,0,8.9,0,9.2V16c0,0.4,0.3,0.6,0.6,0.6h12.6C13.6,16.7,13.8,16.4,13.8,16
				L13.8,16z M12.6,15.4H1.2V9.9h11.4V15.4z"/>
		</g>
		<path d="M25.2,30.5h-0.7c-0.3,0-0.6,0.3-0.6,0.6c0,0.2,0.1,0.3,0.2,0.4c0.1,0.1,0.3,0.2,0.4,0.2h0.7c0.3,0,0.6-0.3,0.6-0.6
			C25.8,30.7,25.5,30.5,25.2,30.5L25.2,30.5z"/>
		<path d="M25.2,34.3h-0.7c-0.3,0-0.6,0.3-0.6,0.6c0,0.2,0.1,0.3,0.2,0.4c0.1,0.1,0.3,0.2,0.4,0.2h0.7c0.3,0,0.6-0.3,0.6-0.6
			C25.8,34.5,25.5,34.3,25.2,34.3L25.2,34.3z"/>
		<path d="M26,38.5L26,38.5c-1.5,0-2.7-1.3-2.7-3v-6.9c0-0.3,0.3-0.6,0.6-0.6H28c0.3,0,0.6,0.3,0.6,0.6v6.9
			C28.6,37.1,27.4,38.5,26,38.5z M24.5,29.2v6.3c0,1,0.6,1.7,1.4,1.7H26c0.8,0,1.4-0.8,1.4-1.7v-6.3H24.5z"/>
		<path d="M29.7,23.2h-7.8c-0.7,0-1.3-0.4-1.6-1c-0.3-0.6-0.4-1.3-0.2-1.9l3.5-11.4c0.3-1.1,1.2-1.5,1.8-1.5c0.8,0,1.5,0.5,1.8,1.3
			l4.3,11.4c0.3,0.7,0.2,1.4-0.1,2C31,22.8,30.4,23.2,29.7,23.2z M25.4,8.6c-0.1,0-0.5,0-0.6,0.6l-3.5,11.4
			c-0.1,0.3-0.1,0.7,0.1,0.9c0.1,0.1,0.3,0.4,0.5,0.4h7.8c0.3,0,0.5-0.2,0.6-0.4c0.2-0.3,0.2-0.6,0.1-1L26.1,9.1
			C26,9,25.8,8.6,25.4,8.6z"/>
		<path d="M25.3,22.9V28c0,0.4,0.3,0.7,0.7,0.7s0.7-0.3,0.7-0.7v-5.1c0-0.4-0.3-0.7-0.7-0.7C25.6,22.3,25.3,22.6,25.3,22.9
			L25.3,22.9z"/>
		<path d="M41,9.9v5.5h-8.8c-0.3,0-0.6,0.3-0.6,0.6c0,0.4,0.3,0.6,0.6,0.6h9.3c0.3,0,0.6-0.3,0.6-0.6V9.2c0-0.4-0.3-0.6-0.6-0.6
			H29.9c-0.3,0-0.6,0.3-0.6,0.6c0,0.4,0.3,0.6,0.6,0.6L41,9.9L41,9.9z"/>
		<path d="M31.7,24c-0.3,0-0.6,0.3-0.6,0.6c0,0.4,0.3,0.6,0.6,0.6h4.6c0.3,0,0.6-0.3,0.6-0.6v-6.8c0-0.4-0.3-0.6-0.6-0.6h-3
			c-0.3,0-0.6,0.3-0.6,0.6c0,0.4,0.3,0.6,0.6,0.6h2.3V24H31.7L31.7,24z"/>
		<path d="M23.8,2h-6.4c-0.4,0-0.7,0.3-0.7,0.6s0.3,0.6,0.7,0.6h6.4c0.4,0,0.7-0.3,0.7-0.6S24.2,2,23.8,2L23.8,2z"/>
		<path d="M26.9,2.1h-0.7c-0.3,0-0.6,0.2-0.6,0.6c0,0.2,0.1,0.3,0.2,0.4c0.1,0.1,0.3,0.2,0.4,0.2h0.7c0.3,0,0.6-0.2,0.6-0.6
			C27.5,2.3,27.2,2.1,26.9,2.1L26.9,2.1z"/>
	</g>
</g>
</svg>
