<?xml version="1.0" encoding="utf-8"?>
<!-- Generator: Adobe Illustrator 25.4.1, SVG Export Plug-In . SVG Version: 6.00 Build 0)  -->
<svg version="1.1" id="Layer_1" xmlns="http://www.w3.org/2000/svg" xmlns:xlink="http://www.w3.org/1999/xlink" x="0px" y="0px"
	 viewBox="0 0 50 58" style="enable-background:new 0 0 50 58;" xml:space="preserve">
<g>
	<g>
		<path d="M49.9,32.1c-0.1-0.2-0.4-0.4-0.7-0.3c-0.1,0-3.5,0.6-7.2,2.5c0.2-0.2,0.4-0.5,0.6-0.7c2.5-3.6,3.6-7.2,3.6-7.3
			c0.1-0.3,0-0.5-0.2-0.7c-0.2-0.2-0.5-0.1-0.7,0c-0.1,0.1-2.2,1.6-4.4,4.2c0.7-3.8,0.6-6.8,0.6-7c0-0.3-0.2-0.5-0.5-0.6
			c-0.3-0.1-0.5,0-0.7,0.3c-0.1,0.1-2.2,3.4-3.4,7.9c-1.1-3.9-2.8-6.6-2.9-6.8c-0.1-0.2-0.4-0.3-0.7-0.3c-0.3,0.1-0.5,0.3-0.5,0.6
			c0,0.2-0.3,4,0.7,8.5c0,0,0,0.1,0,0.1c-1.7-2.2-3.7-3.7-4.7-4.4l-0.1-4.1c1.5-0.1,3-0.4,4.4-0.7c5.1-1.3,8.8-3.9,8.9-4
			c0.2-0.1,0.3-0.4,0.2-0.7c-0.1-0.2-0.3-0.4-0.5-0.5c-0.2,0-3.2-0.4-7.1,0.2c4.1-3.9,6.2-8.2,6.3-8.3c0.1-0.2,0.1-0.5-0.1-0.7
			s-0.5-0.2-0.7-0.1c0,0-4.6,2-8.8,6.1c0,0,0,0-0.1,0.1c0.3-0.6,0.5-1.2,0.8-1.9c2-5.4,2.1-10.2,2.1-10.5c0-0.3-0.2-0.5-0.4-0.6
			c-0.2-0.1-0.5,0-0.7,0.2c-0.1,0.1-2.6,3.1-4.5,7.4c-0.3-5.4-1.6-9.6-1.6-9.8C26.8,0.2,26.6,0,26.3,0l0,0c-0.3,0-0.5,0.2-0.6,0.4
			C25.6,0.6,24,5.7,24,12c0,0.1,0,0.2,0,0.3c-2.8-4.9-6.2-8.1-6.3-8.2C17.5,3.9,17.2,3.8,17,4c-0.2,0.1-0.4,0.4-0.3,0.7
			c0,0.2,0.9,5.2,3.7,10.5c0.2,0.3,0.4,0.7,0.6,1c-0.2-0.1-0.4-0.3-0.6-0.5c-4.3-3.2-8.6-4.5-8.8-4.6c-0.3-0.1-0.5,0-0.7,0.2
			c-0.2,0.2-0.2,0.5,0,0.7c0.1,0.2,2.3,3.7,6.3,6.9c-1.1-0.1-2.3-0.2-3.5-0.2c-2,0-3.3,0.2-3.3,0.2c-0.3,0-0.5,0.2-0.5,0.5
			c-0.1,0.2,0,0.5,0.2,0.6c0.1,0.1,3.7,2.6,8.6,3.7c1.6,0.4,3.4,0.6,5.3,0.6l-0.6,32.1h-4.5c1.7-0.7,2.7-1.4,2.8-1.4
			c0.2-0.1,0.3-0.4,0.3-0.7c-0.1-0.3-0.3-0.4-0.5-0.5c0,0-1-0.2-2.5-0.2c-0.5,0-1.1,0-1.6,0.1c2.5-2.3,3.8-4.7,3.9-4.8
			c0.1-0.2,0.1-0.5-0.1-0.7c-0.2-0.2-0.5-0.3-0.7-0.2c-0.1,0-2.6,1.1-5.2,3.2c0-0.1,0.1-0.2,0.2-0.3c1.5-3.5,1.6-6.7,1.6-6.8
			c0-0.3-0.1-0.5-0.4-0.6c-0.2-0.1-0.5,0-0.7,0.2c-0.1,0.1-1.5,1.6-2.8,4c-0.1-3.2-0.8-5.5-0.8-5.6c-0.1-0.3-0.3-0.4-0.6-0.5
			c-0.3,0-0.5,0.2-0.6,0.4c0,0.1-1.1,3.1-1.4,6.9c-1.6-2.9-3.5-4.8-3.5-4.8C6,44,5.7,44,5.4,44.1c-0.2,0.1-0.4,0.4-0.4,0.6
			c0,0.1,0.4,3.3,2.1,6.7c-2.6-2-5.1-2.8-5.2-2.9c-0.2-0.1-0.5,0-0.7,0.2C1.1,49,1,49.3,1.2,49.5c0.1,0.1,1.2,2.2,3.4,4.2
			c-2.1-0.3-3.7-0.1-3.8-0.1c-0.3,0-0.5,0.2-0.5,0.5c-0.1,0.2,0,0.5,0.2,0.7c0.1,0.1,1.3,1,3.2,1.8H0.6c-0.3,0-0.6,0.3-0.6,0.6
			c0,0.3,0.3,0.6,0.6,0.6H8c1,0.1,1.9,0.2,2.6,0.2c0,0,0.1,0,0.1,0c0,0,0,0,0.1,0c0,0,0,0,0,0c0.5,0,0.9,0,1.2,0c0,0,0,0,0,0
			c0,0,0,0,0,0c0.2,0,0.3,0,0.3,0c0,0,0,0,0,0c0.6,0,1.2-0.1,1.7-0.1h9.3h6h3.6c0.3,0,0.6-0.3,0.6-0.6s-0.3-0.6-0.6-0.6h-3.6l0-0.7
			c0.1-0.1,0.2-0.1,0.3-0.3l2.1-3.8c0.2-0.3,0-0.7-0.3-0.8c-0.3-0.2-0.7,0-0.9,0.3l-1.3,2.4l-0.1-3.8l5.3-9.7
			c0.4,0.1,0.9,0.2,1.3,0.3c0.2,0,0.3,0.1,0.5,0.1c0,0,0,0,0,0l-3.9,7.2c-0.2,0.3,0,0.7,0.3,0.8c0.1,0,0.2,0.1,0.3,0.1
			c0.2,0,0.4-0.1,0.6-0.3l4.1-7.6c1.3,0.2,2.6,0.4,3.9,0.4c0,0,0,0,0.1,0c4,0,7.2-1.2,7.3-1.3c0.2-0.1,0.4-0.3,0.4-0.6
			c0-0.3-0.2-0.5-0.4-0.6c-0.1,0-2.1-0.8-4.9-1.1c3.5-2.1,5.8-4.6,5.9-4.7C50,32.6,50,32.3,49.9,32.1z M19,55.1
			c-1,0.4-2.2,0.9-3.7,1.2c-0.5,0.1-0.9,0.2-1.4,0.2h-1.5c0-0.1,0-0.1,0-0.2c0.9-0.4,1.8-0.7,2.8-0.9c0.1,0,0.1,0,0.3,0
			C16.6,55.2,17.8,55,19,55.1z M18.7,50.4c-0.7,0.9-1.7,2.1-2.9,3.1c-0.3,0.2-0.5,0.5-0.8,0.7c0,0-0.1,0-0.1,0
			c-0.5,0.1-0.9,0.2-1.3,0.4c0.5-0.6,1.1-1.2,1.7-1.7C16.5,51.8,17.7,51,18.7,50.4z M15.4,46.4c-0.2,1.1-0.6,2.6-1.2,4.1
			c-0.4,0.9-0.8,1.8-1.3,2.5c0.1-0.7,0.1-1.4,0.2-2.1l0-0.1c0.1-0.2,0.2-0.4,0.3-0.7C13.9,48.7,14.7,47.4,15.4,46.4z M10.9,49.7
			c0.1-1.8,0.3-3.4,0.6-4.7c0.2,1.3,0.3,3,0.3,4.8c0,0.3,0,0.6,0,0.9c0,0,0,0,0,0c0,0,0,0,0,0c-0.1,1.8-0.3,3.5-0.6,4.7
			c0,0-0.1,0-0.1,0c0,0,0,0,0,0c0,0,0,0,0,0c0-0.1,0-0.3-0.1-0.5c0-0.1,0-0.2,0-0.3c0-0.2,0-0.5-0.1-0.8c0-0.1,0-0.1,0-0.2
			c0-0.6-0.1-1.4-0.1-2.1C10.9,51,10.9,50.4,10.9,49.7z M9.2,50.8l0.1,0.2c0.1,0.3,0.3,0.5,0.4,0.8c0,0.1,0,0.1,0,0.2
			c0,0.5,0,0.9,0,1.3c0,0.1,0,0.1,0,0.2c-0.4-0.7-0.9-1.4-1.3-2.3c-0.7-1.5-1.2-3-1.5-4.2C7.6,48,8.5,49.3,9.2,50.8z M3.5,50.6
			c1,0.5,2.2,1.2,3.3,2.1c0.7,0.6,1.4,1.3,2.1,2c-0.5-0.2-1-0.4-1.6-0.6c-0.3-0.2-0.7-0.5-1-0.8C5.1,52.5,4.1,51.5,3.5,50.6z
			 M6.4,56.2c-1.3-0.4-2.5-0.9-3.4-1.4c1,0,2.3,0.2,3.7,0.5c1,0.3,1.9,0.7,2.7,1c-0.1,0.1-0.2,0.1-0.3,0.2h-1
			C7.5,56.4,7,56.3,6.4,56.2z M34.3,38.7c-1.1-0.3-2.1-0.8-3.1-1.3c-0.8-0.4-1.7-1-2.5-1.6c-0.5-0.4-1-0.8-1.4-1.1
			c0.2,0.1,0.5,0.1,0.8,0.2c1.4,0.4,2.6,0.9,3.7,1.4c0,0,0.1,0.1,0.2,0.1c0.9,0.5,1.8,1.1,2.7,1.7c0.3,0.2,0.6,0.5,0.8,0.7
			c0,0.1,0,0.1,0,0.1C35.1,39,34.7,38.9,34.3,38.7z M28.9,33.9l0-1.5c0.3,0.6,0.8,1.3,1.2,1.9C29.7,34.1,29.3,34,28.9,33.9z
			 M25.1,31.6h0.6c0.3,0,0.6-0.3,0.6-0.6c0-0.3-0.3-0.6-0.6-0.6h-0.5l0.1-3.6h0.6c0.3,0,0.6-0.3,0.6-0.6c0-0.3-0.3-0.6-0.6-0.6h-0.6
			l0-1.1c0.2,0,0.3,0,0.5,0l0.7,0c0.5,0,0.9-0.1,1.1-0.1l0.1,3.3c-0.1,0-0.2,0-0.3,0.1c-0.2,0.2-0.3,0.4-0.2,0.7
			c0,0,0.2,0.5,0.5,1.3l0.1,3.8c-1.2-0.3-2.1-0.4-2.1-0.4c-0.2,0-0.4,0.1-0.5,0.2L25.1,31.6z M44.2,28.1c-0.5,1.3-1.4,3.1-2.6,4.8
			c-0.7,1-1.5,2-2.4,2.9c0.3-0.9,0.6-1.9,0.9-2.8c0.2-0.2,0.3-0.5,0.5-0.7C41.8,30.4,43.2,29,44.2,28.1z M40.1,25.4
			c-0.1,1.6-0.3,3.7-0.9,6c-0.1,0.4-0.2,0.7-0.3,1.1c0,0,0,0,0,0c0,0,0,0,0,0c-0.4,1.4-0.8,2.7-1.3,3.9c-0.2,0.5-0.4,1-0.6,1.4h0
			c0,0-0.1,0.1-0.1,0.1c0,0,0,0,0,0c0,0,0,0-0.1,0c0,0,0,0,0,0c0,0,0,0,0-0.1l0-0.1c0-0.2,0-0.3,0-0.5c0-0.1,0-0.2,0-0.4
			c0-0.2,0.1-0.4,0.1-0.7c0-0.1,0-0.3,0.1-0.4c0-0.2,0.1-0.5,0.1-0.7c0-0.2,0.1-0.3,0.1-0.5c0.1-0.3,0.1-0.7,0.2-1
			c0-0.1,0-0.2,0.1-0.3c0.2-0.7,0.3-1.4,0.5-2.2C38.6,28.8,39.4,26.8,40.1,25.4z M35.9,31.9c0.1,0.4,0.2,0.8,0.3,1.2
			c-0.1,0.4-0.2,0.8-0.3,1.2c0,0.1,0,0.2,0,0.3c-0.1,0.3-0.1,0.6-0.2,0.9c-0.4-1.1-0.8-2.2-1-3.3C34.2,30,34,27.9,34,26.5
			C34.6,27.8,35.4,29.7,35.9,31.9z M32.7,33.5c0.8,1,1.5,2.1,2.1,3.3c-0.7-0.5-1.4-1-2.1-1.3c-0.3-0.4-0.7-0.7-1-1.2
			c-1.3-1.6-2.1-3.2-2.6-4.3C30.1,30.7,31.4,32,32.7,33.5z M39.7,19.4c-1.5,0.9-4,2.1-6.9,2.8c-1.5,0.4-3.1,0.6-4.8,0.8c0,0,0,0,0,0
			c0,0,0,0,0,0c0,0,0,0,0-0.1c0,0,0,0,0,0c0,0,0,0,0-0.1c-0.1-0.1-0.2-0.2-0.4-0.2c0,0,0,0-0.1,0c0,0,0,0,0,0
			c-0.1,0-0.1-0.1-0.2-0.1c0,0,0,0,0,0c0,0,0,0,0,0c0,0,0,0,0,0c0,0,0,0,0,0c0,0,0,0,0,0c0,0,0,0,0.1,0c0,0,0,0,0.1,0c0,0,0,0,0,0
			c0,0,0.1-0.1,0.1-0.1c0,0,0,0,0.1-0.1c0,0,0,0,0,0c0,0,0,0,0,0c0-0.1,0.1-0.1,0.1-0.2l0-0.1c1.6-0.7,3.1-1.3,4.6-1.6
			c0.1,0,0.3-0.1,0.4-0.1C35.5,19.5,38.1,19.4,39.7,19.4z M32.2,16.4c2.4-2.3,4.9-3.9,6.6-4.8c-1,1.6-2.8,4-5.2,6.3
			c-0.4,0.4-0.8,0.8-1.3,1.1c-0.1,0-0.2,0-0.3,0.1c-0.5,0.1-1,0.3-1.4,0.4c-0.1,0-0.3,0.1-0.4,0.1c-0.3,0.1-0.7,0.2-1,0.4
			C29,20,29,20,28.9,20.1C29.9,18.7,31,17.5,32.2,16.4z M29,12.5c1.1-3.1,2.7-5.6,3.8-7.2c-0.2,1.9-0.7,4.8-1.9,7.9
			c-0.8,2.1-1.7,3.9-2.6,5.3c0-0.1,0-0.2,0-0.3c0-0.2,0-0.4,0.1-0.6c0-0.1,0-0.3,0-0.4c0-0.2,0-0.5,0-0.7c0-0.1,0-0.3,0-0.4
			c0-0.3,0-0.5,0-0.8c0-0.1,0-0.2,0-0.4c0-0.3,0-0.7,0-1c0-0.1,0-0.2,0-0.2c0.1-0.3,0.2-0.5,0.3-0.8L29,12.5z M26.3,3.1
			c0.5,2.1,1,5.3,1,8.9c0,0.5,0,1,0,1.5c0,0.4,0,0.7,0,1.1c0,0.1,0,0.1,0,0.2c0,0.3,0,0.6,0,0.9c0,0.1,0,0.2,0,0.3
			c0,0.2,0,0.5,0,0.7c0,0.1,0,0.2,0,0.3c0,0.2,0,0.4,0,0.6c0,0.1,0,0.3,0,0.4c0,0.2,0,0.4-0.1,0.5c0,0.1,0,0.3,0,0.4
			c0,0.2,0,0.3-0.1,0.5c0,0.1,0,0.2-0.1,0.4c0,0.1,0,0.3-0.1,0.4c0,0.1,0,0.2-0.1,0.3c0,0.1,0,0.2-0.1,0.3l-0.1,0.2c0,0,0,0,0,0
			c0,0.1-0.1,0.1-0.1,0.2c0,0,0,0,0,0c0,0,0,0,0,0c0,0-0.1,0-0.1,0c-0.1,0-0.1,0-0.2,0L25.9,21c0,0,0,0,0,0c-0.2-1-0.3-2.2-0.4-3.6
			c-0.1-0.8-0.1-1.5-0.1-2.4c0-0.9-0.1-1.9-0.1-2.9C25.3,8.4,25.8,5.2,26.3,3.1z M18.4,6.6c1.3,1.5,3.3,4,4.9,7
			c0.3,0.5,0.5,1,0.8,1.5c0,0.2,0,0.3,0,0.5c0,0.5,0,0.9,0.1,1.4c0,0.2,0,0.4,0.1,0.7c0,0.4,0.1,0.8,0.1,1.1c0,0.1,0,0.2,0,0.2
			c-1.1-1.5-2.1-3-2.8-4.5C19.9,11.5,18.9,8.6,18.4,6.6z M13.1,13c1.6,0.7,4.1,1.9,6.6,3.7c1.8,1.4,3.3,2.9,4.4,4.1
			c-1.3-0.6-2.6-1-3.9-1.3c-0.5-0.4-1.1-0.7-1.7-1.2C16,16.5,14.2,14.4,13.1,13z M19,22.6c-2.8-0.7-5.1-1.8-6.6-2.6
			c0.4,0,0.8,0,1.3,0c2,0,3.9,0.2,5.8,0.7c0,0,0.1,0,0.1,0c0,0,0,0,0.1,0c1.5,0.4,3.1,0.9,4.7,1.7c-0.1,0.2-0.1,0.4,0,0.6L24,23
			l0,0.2C22.2,23.1,20.5,22.9,19,22.6z M24.6,56.5l0.2-7.9h1.6c0.3,0,0.6-0.3,0.6-0.6s-0.3-0.6-0.6-0.6h-1.5l0.1-6.4h1.2
			c0.3,0,0.6-0.3,0.6-0.6c0-0.3-0.3-0.6-0.6-0.6h-1.2l0.1-5.6c0.1,0.1,1.1,1.2,2.7,2.5l0.2,13c0,0,0,0,0,0c0,0,0,0,0,0l0.1,6.8
			L24.6,56.5L24.6,56.5z M29,37.6c0.6,0.4,1.1,0.7,1.7,1c0.8,0.4,1.7,0.8,2.6,1.1l-4.1,7.5L29,37.6z M41.5,39.8
			c-1.1,0-2.2-0.1-3.4-0.3c0-0.1-0.1-0.2-0.1-0.3c0-0.1,0-0.2,0-0.3c0.1,0,0.2,0,0.4-0.1c1-0.2,2.1-0.2,3.1-0.2c0.1,0,0.2,0,0.4,0
			c1.8,0,3.4,0.3,4.6,0.6C45.2,39.5,43.4,39.9,41.5,39.8z M42.8,36.8c-0.3,0.2-0.7,0.4-1,0.5l-0.1,0.1c-0.1,0-0.1,0-0.2,0
			c-0.7,0-1.3,0-2,0.1c0.9-0.7,1.8-1.3,2.7-1.8c1.9-1,3.7-1.7,5.1-2.1C46.2,34.5,44.7,35.7,42.8,36.8z"/>
		<path d="M47.6,56.5h-6.1c-0.3,0-0.6,0.3-0.6,0.6c0,0.3,0.3,0.6,0.6,0.6h6.1c0.3,0,0.6-0.3,0.6-0.6C48.2,56.8,47.9,56.5,47.6,56.5z
			"/>
		<path d="M39,56.5h-3c-0.3,0-0.6,0.3-0.6,0.6c0,0.3,0.3,0.6,0.6,0.6h3c0.3,0,0.6-0.3,0.6-0.6S39.3,56.5,39,56.5z"/>
	</g>
</g>
</svg>
