<?xml version="1.0" encoding="utf-8"?>
<!-- Generator: Adobe Illustrator 25.4.1, SVG Export Plug-In . SVG Version: 6.00 Build 0)  -->
<svg version="1.1" id="Layer_1" xmlns="http://www.w3.org/2000/svg" xmlns:xlink="http://www.w3.org/1999/xlink" x="0px" y="0px"
	 viewBox="0 0 128 128" style="enable-background:new 0 0 128 128;" xml:space="preserve">
<path d="M43.6,35.9c-0.4-0.7-1.2-1-2-0.9c-0.8,0.2-1.4,0.8-1.6,1.6c-0.2,1.1,0.6,2.1,1.6,2.3c1.1,0.2,2.1-0.6,2.3-1.6
	C44,36.8,43.9,36.3,43.6,35.9L43.6,35.9z"/>
<path d="M32.1,37.4c0.1,1.1,1.1,1.9,2.2,1.8C35.4,39,36.2,38,36,37c-0.1-1.1-1.1-1.9-2.2-1.8C32.7,35.3,32,36.3,32.1,37.4
	C32.1,37.4,32.1,37.4,32.1,37.4z"/>
<path d="M17.2,42.8c0.6,1,1.8,1.3,2.7,0.7s1.3-1.8,0.7-2.7c-0.6-1-1.8-1.3-2.7-0.7C17,40.6,16.7,41.9,17.2,42.8
	C17.2,42.8,17.2,42.8,17.2,42.8z"/>
<path d="M12.8,48.7c1.1,0,2-0.9,2-2c0-0.6-0.2-1.1-0.7-1.5c-0.8-0.7-2.1-0.7-2.8,0.1c0,0,0,0,0,0v0c-0.7,0.8-0.7,2.1,0.1,2.8
	C11.8,48.6,12.3,48.7,12.8,48.7z"/>
<path d="M10.2,54.2c0.5-1,0-2.2-1-2.7s-2.2,0-2.7,1c-0.5,1,0,2.2,1,2.7C8.5,55.6,9.7,55.2,10.2,54.2z"/>
<path d="M24.4,39.3c0.3,1,1.4,1.6,2.5,1.4c1.1-0.3,1.7-1.4,1.4-2.5c-0.3-1.1-1.4-1.7-2.5-1.4C24.6,37.1,24,38.2,24.4,39.3
	C24.3,39.3,24.4,39.3,24.4,39.3z"/>
<path d="M4.6,59.5c-0.8,0.8-0.8,2,0,2.8s2,0.8,2.8,0c0,0,0,0,0,0c0.8-0.8,0.8-2,0-2.8C6.6,58.8,5.4,58.8,4.6,59.5z"/>
<path d="M42.6,28.5c-0.8,0.8-0.8,2,0,2.8c0.8,0.8,2,0.8,2.8,0c0,0,0,0,0,0c0.8-0.8,0.8-2.1,0-2.8c-0.1-0.1-0.2-0.2-0.4-0.3
	C44.2,27.7,43.2,27.9,42.6,28.5z"/>
<path d="M28.5,23.2c-0.3,1.1,0.3,2.2,1.3,2.5c1.1,0.3,2.2-0.3,2.5-1.3c0.3-1.1-0.3-2.2-1.3-2.5C29.9,21.5,28.8,22.1,28.5,23.2z"/>
<path d="M35.6,25.6c-0.5,1,0,2.2,1,2.6c0,0,0,0,0,0c1,0.5,2.2,0,2.7-1c0.5-1,0-2.2-1-2.7c0,0,0,0,0,0C37.2,24.1,36,24.5,35.6,25.6
	C35.6,25.5,35.6,25.6,35.6,25.6z"/>
<path d="M13.7,22.2c0.1,1.1,1.1,1.9,2.2,1.8c1.1-0.1,1.9-1.1,1.8-2.2s-1.1-1.9-2.2-1.8C14.4,20.1,13.6,21.1,13.7,22.2
	C13.7,22.2,13.7,22.2,13.7,22.2z"/>
<path d="M6.6,24.5c0.4,1,1.6,1.5,2.6,1.1c1-0.4,1.5-1.6,1.1-2.6c-0.4-1-1.6-1.5-2.6-1.1C6.6,22.3,6.1,23.5,6.6,24.5
	C6.6,24.5,6.6,24.5,6.6,24.5z"/>
<path d="M21.1,21.9C21,23,21.8,24,22.9,24.1c1.1,0.1,2.1-0.6,2.2-1.7c0.1-1.1-0.6-2.1-1.7-2.2C22.3,20,21.3,20.8,21.1,21.9z"/>
<path d="M0.2,28.4c0.4,1,1.6,1.5,2.6,1.1C3,29.3,3.2,29.2,3.4,29c0.8-0.8,0.8-2,0-2.8c-0.8-0.8-2-0.8-2.8,0
	C0.1,26.8-0.1,27.6,0.2,28.4z"/>
<path d="M83.2,28c-0.7,0.3-1.2,1-1.2,1.8c0,1.1,0.9,2,2,2c1.1,0,2-0.9,2-2c0-1.1-0.9-2-2-2c-0.1,0-0.3,0-0.4,0
	C83.5,28,83.4,28,83.2,28z"/>
<path d="M97.6,25.7c1.1,0,2-0.9,2-2.1c0-0.2,0-0.3-0.1-0.5c-0.3-1.1-1.4-1.7-2.5-1.3c-1.1,0.3-1.7,1.4-1.3,2.5
	C95.9,25.2,96.7,25.7,97.6,25.7z"/>
<path d="M88.8,27.2c0.5,1,1.6,1.4,2.6,1c1-0.5,1.5-1.6,1-2.6c-0.5-1-1.6-1.5-2.6-1C88.8,25,88.3,26.2,88.8,27.2L88.8,27.2z"/>
<path d="M112.2,24c1.1,0.1,2.1-0.7,2.2-1.8c0.1-1.1-0.7-2.1-1.8-2.2c-1.1-0.1-2.1,0.7-2.2,1.8c0,0,0,0,0,0
	C110.3,22.9,111.1,23.9,112.2,24z"/>
<path d="M118.8,25.6c1,0.4,2.2-0.1,2.6-1.1c0.4-1-0.1-2.2-1.1-2.6c-1-0.4-2.2,0.1-2.6,1.1C117.3,24.1,117.8,25.2,118.8,25.6z"/>
<path d="M104.9,24.2c1.1,0,2-0.9,2-2c0-1.1-0.9-2-2-2c-0.1,0-0.2,0-0.3,0c-1.1,0.1-1.9,1.1-1.7,2.2C103,23.4,103.9,24.2,104.9,24.2z
	"/>
<path d="M124,28c0.2,1.1,1.3,1.8,2.4,1.6c0.9-0.2,1.6-1,1.6-2c0-1.1-0.9-2-2.1-2c-0.5,0-1,0.2-1.4,0.6C124.1,26.7,123.9,27.3,124,28
	z"/>
<path d="M82,23.9c0.5,0,1-0.2,1.4-0.6c0.8-0.8,0.8-2,0-2.8c-0.8-0.8-2-0.8-2.8,0c-0.8,0.8-0.8,2,0,2.8C80.9,23.7,81.5,23.9,82,23.9z
	"/>
<path d="M106.6,5.6c0.2,0,0.4,0,0.6-0.1c1.1-0.3,1.8-1.4,1.5-2.5s-1.4-1.8-2.5-1.5c-1.1,0.3-1.8,1.4-1.5,2.5
	C104.8,4.9,105.6,5.5,106.6,5.6z"/>
<path d="M99.3,8.5c0.3,0,0.6-0.1,0.9-0.2c1-0.5,1.4-1.7,0.9-2.7c-0.5-1-1.7-1.4-2.7-0.9c-1,0.5-1.4,1.7-0.9,2.7
	C97.9,8.1,98.6,8.5,99.3,8.5L99.3,8.5z"/>
<path d="M92.7,12.6c1.1,0,2-0.9,2-2c0-1.1-0.9-2-2-2c-0.4,0-0.9,0.1-1.2,0.4c-0.9,0.7-1.1,1.9-0.4,2.8
	C91.5,12.3,92.1,12.6,92.7,12.6z"/>
<path d="M86.9,17.8c1.1,0,2-0.9,2-2c0-1.1-0.9-2-2-2c-1.1,0-2,0.9-2,2c0,0.5,0.2,1.1,0.6,1.4C85.9,17.6,86.4,17.8,86.9,17.8z"/>
<path d="M114.2,4.1c0.1,0,0.1,0,0.2,0c1.1-0.1,1.9-1.1,1.8-2.2S115.1,0,114,0.1s-1.9,1.1-1.8,2.2C112.3,3.3,113.2,4.1,114.2,4.1z"/>
<path d="M122,4c1.1,0,2-0.9,2-2c0-1.1-0.9-2-2-2s-2,0.9-2,2C120,3.1,120.9,4,122,4z"/>
<path d="M46,23.9c0.5,0,1-0.2,1.4-0.6c0.8-0.8,0.8-2,0-2.8c-0.8-0.8-2-0.8-2.8,0c-0.8,0.8-0.8,2,0,2.8C45,23.7,45.5,23.9,46,23.9z"
	/>
<path d="M34.1,12.2c0.9,0.7,2.1,0.5,2.8-0.4c0.7-0.9,0.5-2.1-0.4-2.8c0,0,0,0,0,0c-0.9-0.7-2.1-0.5-2.8,0.4
	C33,10.3,33.2,11.6,34.1,12.2C34.1,12.2,34.1,12.2,34.1,12.2z"/>
<path d="M27.8,8.3c0.3,0.1,0.6,0.2,0.9,0.2c1.1,0,2-0.9,2-2c0-1.1-0.9-2-2-2c-0.7,0-1.4,0.4-1.8,1.1C26.4,6.6,26.8,7.8,27.8,8.3z"/>
<path d="M13.6,4.1c1.1,0.1,2.1-0.7,2.2-1.8c0.1-1.1-0.7-2.1-1.8-2.2s-2.1,0.7-2.2,1.8C11.7,3,12.5,4,13.6,4.1z"/>
<path d="M20.9,5.5c1.1,0.3,2.2-0.3,2.5-1.4C23.7,3.1,23.1,2,22,1.7C21,1.4,19.8,2,19.5,3S19.8,5.2,20.9,5.5
	C20.9,5.5,20.9,5.5,20.9,5.5z"/>
<path d="M41.1,17.8c1.1,0,2-0.9,2-2c0-1.1-0.9-2-2-2c-0.5,0-1,0.2-1.4,0.6c-0.8,0.8-0.8,2,0,2.8C40,17.6,40.6,17.8,41.1,17.8
	L41.1,17.8z"/>
<path d="M4.2,2.8C4.5,3.5,5.2,4,6,4c1.1,0,2-0.9,2-2c0-1.1-0.9-2-2.1-2C5.8,0,5.7,0,5.6,0C4.7,0.2,4,1,4,2C4,2.3,4.1,2.5,4.2,2.8z"
	/>
<path d="M87.7,35.9c-0.6-0.9-1.9-1.2-2.8-0.5c-0.9,0.6-1.2,1.9-0.5,2.8c0.1,0.1,0.2,0.2,0.3,0.3c0.5,0.4,1.1,0.6,1.8,0.5
	c1.1-0.2,1.8-1.3,1.5-2.4C87.9,36.3,87.8,36.1,87.7,35.9z"/>
<path d="M113.9,45.3c-0.8,0.7-0.9,2-0.1,2.8c0,0,0,0,0,0c0.8,0.8,2,0.8,2.8,0.1c0.8-0.7,0.9-2,0.1-2.8
	C116,44.6,114.7,44.5,113.9,45.3L113.9,45.3z"/>
<path d="M99.8,38.1c-0.3,1.1,0.3,2.2,1.3,2.5c1.1,0.3,2.2-0.3,2.5-1.3c0.3-1.1-0.3-2.2-1.3-2.5c0,0,0,0,0,0
	C101.3,36.5,100.1,37,99.8,38.1C99.8,38.1,99.8,38.1,99.8,38.1z"/>
<path d="M121.4,52.5c-0.5-1-1.6-1.4-2.6-1s-1.4,1.6-1,2.6c0,0,0,0,0,0c0.5,1,1.7,1.4,2.7,1C121.5,54.7,121.9,53.5,121.4,52.5z"/>
<path d="M107.3,40.8c-0.6,0.9-0.2,2.2,0.7,2.7c0,0,0,0,0,0c1,0.5,2.2,0.2,2.7-0.7c0.6-1,0.2-2.2-0.7-2.7
	C109.1,39.5,107.9,39.8,107.3,40.8L107.3,40.8L107.3,40.8z"/>
<path d="M94.2,35.2C93,35.1,92.1,35.9,92,37c-0.1,1.1,0.8,2.1,1.9,2.2c0,0,0.1,0,0.1,0c1.1,0,2-0.9,2-2
	C95.9,36.1,95.2,35.3,94.2,35.2L94.2,35.2z"/>
<path d="M120.2,61.7c0.3,0.7,1,1.2,1.8,1.2c1.1,0,2-0.9,2-2c0-1.1-0.9-2-2-2c-0.1,0-0.3,0-0.4,0c-0.9,0.2-1.6,1-1.6,2
	C120,61.2,120.1,61.4,120.2,61.7z"/>
<path d="M54.5,73.6c-0.2,0.3-0.3,0.7-0.5,1c1,1.1,1.9,2.3,2.9,3.5c2.8-6.7,6.4-13,10.6-18.9c0.7-0.9,0.5-2.1-0.3-2.8
	c-0.8-0.6-1.9-0.6-2.6,0.1c-5,4.5-9.6,9.5-13.6,14.9c0.9,1,1.8,2,2.8,3.1C54.1,74.1,54.3,73.9,54.5,73.6z"/>
<path d="M126,124h-7.5c-0.2-6.2-0.1-26.8,9.1-38.8c0.7-0.9,0.5-2.1-0.4-2.8c-0.7-0.5-1.6-0.5-2.4-0.1c-4,3-7.5,6.5-10.5,10.4
	c2.4-7.5,5.2-14.8,8.4-22c0.5-1,0-2.2-1-2.7c-0.7-0.3-1.6-0.2-2.2,0.3c-16,14-21,30.4-22.3,42.1c-3-4.2-6.7-8.6-6.9-8.9
	c-0.7-0.8-2-1-2.8-0.3c-0.7,0.6-0.9,1.5-0.6,2.3c1.2,2.8,2.2,13.2,2.7,20.2h-5.9c-0.2-6.3-0.1-26.8,8.7-38.9
	c0.7-0.9,0.5-2.1-0.4-2.8c-0.7-0.5-1.7-0.5-2.4,0c-4.8,4-8.9,8.9-11.9,14.4c3-13.5,8.6-26.3,16.7-37.6c0.7-0.9,0.5-2.1-0.3-2.8
	c-0.8-0.6-1.9-0.6-2.6,0.1C79.2,67.3,70,81.4,65,97.1C56.4,80.5,41,67,40.3,66.4c-0.8-0.7-2.1-0.6-2.8,0.2c-0.7,0.8-0.6,1.9,0,2.6
	c8,8.9,21.4,44.9,23.5,50.6c0,1.7,0,3,0,4.1h-5v-6.1c-1-2.6-2-5.3-3.1-8.1c-0.4,4.7-0.4,9.5-0.1,14.2h-4c-0.5-7.3-0.2-14.6,1-21.8
	c-0.9-2.2-1.9-4.5-2.8-6.7c-2.1,9.4-2.9,19-2.2,28.5H38c-0.1-11.5,2.2-22.9,6.8-33.5c-0.8-1.7-1.5-3.3-2.3-4.9
	c-5.8,11.9-8.7,25.1-8.5,38.4h-4c-0.1-6.1,0.4-12.2,1.6-18.1c-1.1-7.9-2.9-15.6-5.3-23.2c3,4.2,5.6,8.6,7.9,13.2
	c0.5-1.7,1.1-3.4,1.8-5.2c-4-7.3-8.9-14.1-14.6-20.1c-0.8-0.8-2-0.8-2.8,0c-0.6,0.6-0.7,1.5-0.4,2.2C28,94.8,29,117.4,29,124h-4
	c0.3-16-6.6-31.3-18.8-41.6c-0.9-0.7-2.1-0.5-2.8,0.4c-0.5,0.7-0.5,1.7,0,2.4c5.2,7.1,7.3,17.1,8.2,25.4c-3.6-3.8-8-7.8-8.2-8.1
	c-0.8-0.7-2.1-0.7-2.8,0.1c-0.6,0.7-0.7,1.6-0.2,2.4c1.6,2.7,4,13.1,5.3,19H2c-1.1,0-2,0.9-2,2c0,1.1,0.9,2,2,2h124c1.1,0,2-0.9,2-2
	C128,124.9,127.1,124,126,124L126,124z M114.5,124H108c-0.1-10.8,3.6-21.4,10.4-29.8C114.3,106,114.3,118.9,114.5,124L114.5,124z
	 M115.2,78.7c-4.2,10.7-7.5,21.6-9.9,32.9c0,0.1,0,0.2,0,0.3c-0.9,4-1.4,8.1-1.3,12.2h-2.6C99.5,107.6,104.5,91.2,115.2,78.7
	L115.2,78.7z M92.6,110.8c1.6,2.1,3.1,4.3,4.4,6.6c0,2.2,0.1,4.5,0.4,6.7h-3.6C93.7,121.7,93.3,115.9,92.6,110.8z M83.1,96
	c-3.4,11.3-3.4,23.2-3.3,28h-4.1c-0.2-2.9-0.3-5.7-0.2-8.4C76.7,108.6,79.2,101.9,83.1,96z M49.4,81.6c5,5.8,10.3,13.2,13.7,21
	c0.1,0.1,0.1,0.2,0.2,0.3c-0.7,2.8-1.2,5.4-1.5,7.8C58.8,102.9,54.2,91.3,49.4,81.6z M81.5,73.6c-6.1,13-9.5,27.1-9.9,41.5
	C71.1,118,71,121,71,124h-6C64.8,117.7,65.4,95.5,81.5,73.6z M21,124h-4.9c0.2-4.8,0.1-16.8-3.3-28.1C18.4,104.2,21.2,114,21,124z
	 M6.7,111.2c1.9,1.9,3.7,3.9,5.4,6c0.1,2.9,0.1,5.3,0,6.8H9.7C9.1,121.3,8,116,6.7,111.2z"/>
<path d="M56,43.9h3c1.1,0,2-0.9,2-2v-17h6v17c0,1.1,0.9,2,2,2h3v29.2c1.2-1.9,2.6-3.8,4-5.7V41.9c0-1.1-0.9-2-2-2h-3v-15h3
	c1.1,0,2-0.9,2-2c0-6.6-5.4-12-12-12s-12,5.4-12,12c0,1.1,0.9,2,2,2h3v15h-3c-1.1,0-2,0.9-2,2v21.8c1.3-1.5,2.6-3,4-4.5V43.9z
	 M64,14.9c3.6,0,6.8,2.5,7.7,6H56.3C57.2,17.3,60.4,14.9,64,14.9z"/>
</svg>
