<?xml version="1.0" encoding="utf-8"?>
<!-- Generator: Adobe Illustrator 25.4.1, SVG Export Plug-In . SVG Version: 6.00 Build 0)  -->
<svg version="1.1" id="Layer_1" xmlns="http://www.w3.org/2000/svg" xmlns:xlink="http://www.w3.org/1999/xlink" x="0px" y="0px"
	 viewBox="0 0 64 48" style="enable-background:new 0 0 64 48;" xml:space="preserve">
<style type="text/css">
	.st0{fill:#F2F602;}
</style>
<g>
	<path class="st0" d="M62,0h-4c-0.8,0-1.6,0.5-1.9,1.3L52.3,12c-0.1,0-0.2,0-0.3,0h-3l-5.4-7.2C43.2,4.3,42.6,4,42,4H26
		c-0.6,0-1.2,0.3-1.6,0.8L19,12h-5c-0.7,0-1.4,0.4-1.7,1c-0.4,0.6-0.3,1.4,0.1,2l8.9,14.2l-3.7,2.1C15.7,29.3,13,28,10,28
		C4.5,28,0,32.5,0,38s4.5,10,10,10s10-4.5,10-10c0-1.1-0.2-2.1-0.5-3.1l5-2.9h9.9l2.8,11.1c0.7,2.9,3.3,4.9,6.3,4.9
		c3.6,0,6.5-2.9,6.5-6.5V30.3L59.4,4H62c1.1,0,2-0.9,2-2S63.1,0,62,0z M10,44c-3.3,0-6-2.7-6-6s2.7-6,6-6c1.5,0,2.9,0.6,3.9,1.5
		L9,36.3C8,36.8,7.7,38,8.3,39c0.5,1,1.8,1.3,2.7,0.7l4.9-2.8C16,37.3,16,37.6,16,38C16,41.3,13.3,44,10,44z M27,8h14l3,4H24L27,8z
		 M46,41.5c0,1.4-1.1,2.5-2.5,2.5c-1.1,0-2.1-0.8-2.4-1.9L38.6,32H46V41.5z M46.6,28L36,28H25.1l-7.5-12h33.3L46.6,28z"/>
</g>
</svg>
