<?xml version="1.0" encoding="utf-8"?>
<!-- Generator: Adobe Illustrator 25.4.1, SVG Export Plug-In . SVG Version: 6.00 Build 0)  -->
<svg version="1.1" id="Layer_1" xmlns="http://www.w3.org/2000/svg" xmlns:xlink="http://www.w3.org/1999/xlink" x="0px" y="0px"
	 viewBox="0 0 63.5 35.2" style="enable-background:new 0 0 63.5 35.2;" xml:space="preserve">
<g>
	<path d="M61.1,0H20.5c-1.3,0-2.4,1.1-2.4,2.4s1.1,2.4,2.4,2.4h0.9v7.7l-3.7-1.6c-0.1,0-0.2-0.1-0.3-0.1h-7v-1
		c0-0.4-0.3-0.8-0.8-0.8H0.8C0.3,9.1,0,9.4,0,9.8v3.6c0,0.4,0.3,0.8,0.8,0.8h8.9c0.4,0,0.8-0.3,0.8-0.8v-1h6.8l4.6,2l0,0
		c0,0,0,0,0,0l3.2,1.4v14.3c0,1.2,0.7,2.2,1.7,2.6c0.4,0.1,0.7,0.2,1.1,0.2c0.7,0,1.4-0.3,2-0.8l9.9-9.9l3.2,1.4l0.6,0.3
		c-0.3,0.9-0.5,1.8-0.5,2.7c0,4.7,3.8,8.6,8.6,8.6c4.7,0,8.6-3.8,8.6-8.6c0-4.7-3.8-8.6-8.6-8.6c-1.3,0-2.6,0.3-3.7,0.8L60.8,4.8
		h0.3c1.3,0,2.4-1.1,2.4-2.4S62.4,0,61.1,0z M8.9,12.6H1.5v-2.1h7.4V12.6z M28.8,31c-0.4,0.4-0.9,0.5-1.5,0.3
		c-0.5-0.2-0.8-0.7-0.8-1.2V16.4l11.7,5.1L28.8,31z M58.7,26.6c0,3.9-3.2,7.1-7.1,7.1c-3.9,0-7.1-3.2-7.1-7.1c0-0.7,0.1-1.4,0.3-2.1
		l3.7,1.6c0,0.2-0.1,0.3-0.1,0.5c0,1.7,1.4,3.1,3.1,3.1c1.7,0,3.1-1.4,3.1-3.1s-1.4-3.1-3.1-3.1c-1,0-1.9,0.5-2.4,1.2l-3.7-1.6
		c1.2-2.2,3.6-3.6,6.1-3.6C55.5,19.5,58.7,22.7,58.7,26.6z M50,26.6c0-0.9,0.7-1.6,1.6-1.6c0.9,0,1.6,0.7,1.6,1.6s-0.7,1.6-1.6,1.6
		C50.8,28.2,50,27.5,50,26.6z M43,22l-20.1-8.8V4.8h35.9L43,22z M61.1,3.3c-14.1,0-32.4,0-40.6,0c-0.5,0-0.9-0.4-0.9-0.9
		s0.4-0.9,0.9-0.9h40.6c0.5,0,0.9,0.4,0.9,0.9S61.6,3.3,61.1,3.3z"/>
</g>
</svg>
