<?xml version="1.0" encoding="utf-8"?>
<!-- Generator: Adobe Illustrator 25.4.1, SVG Export Plug-In . SVG Version: 6.00 Build 0)  -->
<svg version="1.1" xmlns="http://www.w3.org/2000/svg" xmlns:xlink="http://www.w3.org/1999/xlink" x="0px" y="0px"
	 viewBox="0 0 95 73.8" style="enable-background:new 0 0 95 73.8;" xml:space="preserve">
<style type="text/css">
	.st0{fill:#F2F602;}
</style>
<g id="Layer_2">
</g>
<g id="Layer_1">
	<path class="st0" d="M94.6,28.4c-0.6-0.8-1.6-1.1-2.5-0.8c-10.9,3.7-19.3,12.3-25.5,20.8c3.8-10.9,8.9-23.9,15-35.1
		c0.5-0.9,0.3-2-0.5-2.7s-1.9-0.7-2.7-0.1C69.5,17,62.4,25,56.8,33.1c1.7-10.3,4.3-21.1,8.6-30c0.4-0.9,0.2-2.1-0.6-2.7
		c-0.8-0.6-2-0.6-2.7,0.1c-11,9.4-17.8,22.1-21.9,34c-4.9-6.3-11.2-12.6-19.6-18c-0.8-0.5-2-0.5-2.7,0.2s-0.9,1.8-0.4,2.7
		c6.3,11,10.4,22.5,12.9,32C24.2,41.9,15,31.8,2.9,27.6c-0.9-0.3-1.9,0-2.5,0.8s-0.5,1.8,0.1,2.6c15.3,18.7,19.8,40.9,19.8,41.1
		c0.2,1,1.1,1.7,2.1,1.7h50.1c1.1,0,1.9-0.7,2.1-1.7c0-0.2,4.4-22.4,19.8-41.1C95.1,30.2,95.2,29.2,94.6,28.4z M57.4,11.5
		c-3.3,10.1-5.2,21.1-6.3,30.7c-1,1.8-2,3.5-2.8,5.3c-1.4-2.7-3-5.6-4.9-8.5C46.2,29.8,50.7,19.8,57.4,11.5z M24.2,69.5
		C23,64.5,19,50,9.3,35.5c12.1,7.8,20.3,22.1,24.3,30.4c0.2,1.4,0.4,2.7,0.6,3.6H24.2z M38.6,69.5c-0.8-6-3.8-24.6-12.9-43.8
		c19,16.1,24.2,36.8,25.4,43.8H38.6z M50.7,52.7c4.7-9.9,11.9-22,22.3-32C63.5,41,57.2,63.3,55.6,69.5
		C55.1,66.4,53.8,60.2,50.7,52.7z M70.8,69.5H60.1c0.2-0.6,0.3-1.2,0.6-2c3.7-8,12.1-23.6,25.1-32C76,50,72,64.6,70.8,69.5z"/>
</g>
</svg>
